<?xml version="1.0" standalone="no"?>
 <!DOCTYPE svg PUBLIC "-//W3C//DTD SVG 1.1//EN" 
 "http://www.w3.org/Graphics/SVG/1.1/DTD/svg11.dtd"> 
<svg xmlns="http://www.w3.org/2000/svg" version="1.1" 
    width="29.7002cm" height="21.0007cm" viewBox="0 0 116929 82679 ">
<title>SVG Picture created as I2C_rotary_encoder.svg date 2017/04/05 22:09:08 </title>
  <desc>Picture generated by Eeschema-SVG </desc>
<g style="fill:#000000; fill-opacity:1;stroke:#000000; stroke-opacity:1;
stroke-linecap:round; stroke-linejoin:round; "
 transform="translate(0 0) scale(1 1)">
</g>
<g style="fill:#000000; fill-opacity:0.0; 
stroke:#000000; stroke-width:0; stroke-opacity:1; 
stroke-linecap:round; stroke-linejoin:round;">
</g>
<g style="fill:#000000; fill-opacity:0.0; 
stroke:#000000; stroke-width:100; stroke-opacity:1; 
stroke-linecap:round; stroke-linejoin:round;">
<rect x="27000" y="28500" width="4000" height="4000" rx="0" />
<path d="M27800 30502.1 A1200 1200 0.0 0 0 30200 30502.1 " />
<circle cx="29000" cy="30500" r="750" /> 
<circle cx="29400" cy="32100" r="50" /> 
<polyline fill="none;"
points="28300,30400
29700,30400
" /> 
<polyline fill="none;"
points="27800,30500
27600,30700
" /> 
<polyline fill="none;"
points="27800,30500
28000,30700
" /> 
<polyline fill="none;"
points="28300,30500
29700,30500
" /> 
<polyline fill="none;"
points="30200,30500
30000,30700
" /> 
<polyline fill="none;"
points="29700,30600
28300,30600
" /> 
<polyline fill="none;"
points="30400,30700
30200,30500
" /> 
<polyline fill="none;"
points="29400,32100
28650,32300
" /> 
<polyline fill="none;"
points="28000,32500
28000,32100
28600,32100
" /> 
<polyline fill="none;"
points="30000,32500
30000,32100
29400,32100
" /> 
</g>
<g style="fill:#000000; fill-opacity:0.0; 
stroke:#000000; stroke-width:60; stroke-opacity:1; 
stroke-linecap:round; stroke-linejoin:round;">
<path d="M30000 28500
L30000 27500
" />
<path d="M30080 29260
L30080 29020
" />
<path d="M30220 29310
L29720 29140
L30220 28970
" />
<path d="M29870 27850
L29870 28140
" />
<path d="M29870 28000
L29370 28000
L29440 28040
L29490 28090
L29510 28140
" />
<path d="M29000 28500
L29000 27500
" />
<path d="M29170 29020
L29200 29040
L29220 29120
L29220 29160
L29200 29230
L29150 29280
L29100 29310
L29010 29330
L28940 29330
L28840 29310
L28790 29280
L28750 29230
L28720 29160
L28720 29120
L28750 29040
L28770 29020
" />
<path d="M28420 28140
L28400 28110
L28370 28070
L28370 27950
L28400 27900
L28420 27880
L28470 27850
L28510 27850
L28590 27880
L28870 28160
L28870 27850
" />
<path d="M28000 28500
L28000 27500
" />
<path d="M27960 29140
L27980 29070
L28010 29040
L28050 29020
L28130 29020
L28170 29040
L28200 29070
L28220 29120
L28220 29310
L27720 29310
L27720 29140
L27750 29090
L27770 29070
L27820 29040
L27860 29040
L27910 29070
L27940 29090
L27960 29140
L27960 29310
" />
<path d="M27370 28160
L27370 27850
L27560 28020
L27560 27950
L27590 27900
L27610 27880
L27660 27850
L27780 27850
L27820 27880
L27850 27900
L27870 27950
L27870 28090
L27850 28140
L27820 28160
" />
<path d="M30000 32500
L30000 33500
" />
<path d="M29540 32900
L29870 32900
" />
<path d="M29350 33020
L29700 33140
L29700 32830
" />
<path d="M28000 32500
L28000 33500
" />
<path d="M27370 32880
L27370 33110
L27610 33140
L27590 33110
L27560 33070
L27560 32950
L27590 32900
L27610 32880
L27660 32850
L27780 32850
L27820 32880
L27850 32900
L27870 32950
L27870 33070
L27850 33110
L27820 33140
" />
<path d="M25120 30720
L25190 30740
L25310 30740
L25360 30720
L25380 30690
L25400 30650
L25400 30600
L25380 30550
L25360 30530
L25310 30500
L25210 30480
L25170 30460
L25140 30430
L25120 30380
L25120 30340
L25140 30290
L25170 30270
L25210 30240
L25330 30240
L25400 30270
" />
<path d="M25570 30240
L25690 30740
L25790 30380
L25880 30740
L26000 30240
" />
<path d="M26450 30740
L26170 30740
" />
<path d="M26310 30740
L26310 30240
L26260 30310
L26210 30360
L26170 30380
" />
<path d="M18430 32240
L18260 32000
" />
<path d="M18140 32240
L18140 31740
L18330 31740
L18380 31770
L18400 31790
L18430 31840
L18430 31910
L18400 31960
L18380 31980
L18330 32000
L18140 32000
" />
<path d="M18710 32240
L18670 32220
L18640 32190
L18620 32150
L18620 32000
L18640 31960
L18670 31930
L18710 31910
L18790 31910
L18830 31930
L18860 31960
L18880 32000
L18880 32150
L18860 32190
L18830 32220
L18790 32240
L18710 32240
" />
<path d="M19020 31910
L19210 31910
" />
<path d="M19090 31740
L19090 32170
L19120 32220
L19170 32240
L19210 32240
" />
<path d="M19590 32240
L19590 31980
L19570 31930
L19520 31910
L19430 31910
L19380 31930
" />
<path d="M19590 32220
L19550 32240
L19430 32240
L19380 32220
L19360 32170
L19360 32120
L19380 32070
L19430 32050
L19550 32050
L19590 32030
" />
<path d="M19830 32240
L19830 31910
" />
<path d="M19830 32000
L19860 31960
L19880 31930
L19930 31910
L19980 31910
" />
<path d="M20090 31910
L20210 32240
" />
<path d="M20330 31910
L20210 32240
L20170 32360
L20140 32380
L20090 32410
" />
<path d="M20400 32290
L20790 32290
" />
<path d="M20900 31980
L21070 31980
" />
<path d="M21140 32240
L20900 32240
L20900 31740
L21140 31740
" />
<path d="M21360 31910
L21360 32240
" />
<path d="M21360 31960
L21380 31930
L21430 31910
L21500 31910
L21550 31930
L21570 31980
L21570 32240
" />
<path d="M22020 32220
L21980 32240
L21880 32240
L21830 32220
L21810 32190
L21790 32150
L21790 32000
L21810 31960
L21830 31930
L21880 31910
L21980 31910
L22020 31930
" />
<path d="M22310 32240
L22260 32220
L22240 32190
L22210 32150
L22210 32000
L22240 31960
L22260 31930
L22310 31910
L22380 31910
L22430 31930
L22450 31960
L22480 32000
L22480 32150
L22450 32190
L22430 32220
L22380 32240
L22310 32240
" />
<path d="M22900 32240
L22900 31740
" />
<path d="M22900 32220
L22860 32240
L22760 32240
L22710 32220
L22690 32190
L22670 32150
L22670 32000
L22690 31960
L22710 31930
L22760 31910
L22860 31910
L22900 31930
" />
<path d="M23330 32220
L23290 32240
L23190 32240
L23140 32220
L23120 32170
L23120 31980
L23140 31930
L23190 31910
L23290 31910
L23330 31930
L23360 31980
L23360 32030
L23120 32070
" />
<path d="M23570 32240
L23570 31910
" />
<path d="M23570 32000
L23590 31960
L23620 31930
L23670 31910
L23710 31910
" />
<path d="M23760 32290
L24140 32290
" />
<path d="M24240 32220
L24310 32240
L24430 32240
L24480 32220
L24500 32190
L24520 32150
L24520 32100
L24500 32050
L24480 32030
L24430 32000
L24330 31980
L24290 31960
L24260 31930
L24240 31880
L24240 31840
L24260 31790
L24290 31770
L24330 31740
L24450 31740
L24520 31770
" />
<path d="M24690 31910
L24790 32240
L24880 32000
L24980 32240
L25070 31910
" />
<path d="M25260 32240
L25260 31910
" />
<path d="M25260 31740
L25240 31770
L25260 31790
L25290 31770
L25260 31740
L25260 31790
" />
<path d="M25430 31910
L25620 31910
" />
<path d="M25500 31740
L25500 32170
L25520 32220
L25570 32240
L25620 32240
" />
<path d="M26000 32220
L25950 32240
L25860 32240
L25810 32220
L25790 32190
L25760 32150
L25760 32000
L25790 31960
L25810 31930
L25860 31910
L25950 31910
L26000 31930
" />
<path d="M26210 32240
L26210 31740
" />
<path d="M26430 32240
L26430 31980
L26400 31930
L26360 31910
L26290 31910
L26240 31930
L26210 31960
" />
<path d="M28000 25000
L28000 27500
" />
</g>
<g style="fill:#000000; fill-opacity:0.0; 
stroke:#000000; stroke-width:0; stroke-opacity:1; 
stroke-linecap:round; stroke-linejoin:round;">
</g>
<g style="fill:#000000; fill-opacity:0.0; 
stroke:#000000; stroke-width:100; stroke-opacity:1; 
stroke-linecap:round; stroke-linejoin:round;">
<rect x="42000" y="15000" width="8000" height="18000" rx="0" />
</g>
<g style="fill:#000000; fill-opacity:0.0; 
stroke:#000000; stroke-width:60; stroke-opacity:1; 
stroke-linecap:round; stroke-linejoin:round;">
<path d="M42000 16000
L41000 16000
" />
<path d="M42810 15750
L42760 15720
L42690 15720
L42620 15750
L42570 15790
L42540 15840
L42520 15940
L42520 16010
L42540 16100
L42570 16150
L42620 16200
L42690 16220
L42730 16220
L42810 16200
L42830 16170
L42830 16010
L42730 16010
" />
<path d="M43040 16220
L43040 15720
L43230 15720
L43280 15750
L43310 15770
L43330 15820
L43330 15890
L43310 15940
L43280 15960
L43230 15980
L43040 15980
" />
<path d="M43710 15960
L43780 15980
L43810 16010
L43830 16050
L43830 16130
L43810 16170
L43780 16200
L43730 16220
L43540 16220
L43540 15720
L43710 15720
L43760 15750
L43780 15770
L43810 15820
L43810 15860
L43780 15910
L43760 15940
L43710 15960
L43540 15960
" />
<path d="M44140 15720
L44190 15720
L44230 15750
L44260 15770
L44280 15820
L44310 15910
L44310 16030
L44280 16130
L44260 16170
L44230 16200
L44190 16220
L44140 16220
L44090 16200
L44070 16170
L44040 16130
L44020 16030
L44020 15910
L44040 15820
L44070 15770
L44090 15750
L44140 15720
" />
<path d="M41640 15870
L41350 15870
" />
<path d="M41500 15870
L41500 15370
L41450 15440
L41400 15490
L41350 15510
" />
<path d="M42000 17000
L41000 17000
" />
<path d="M42810 16750
L42760 16720
L42690 16720
L42620 16750
L42570 16790
L42540 16840
L42520 16940
L42520 17010
L42540 17100
L42570 17150
L42620 17200
L42690 17220
L42730 17220
L42810 17200
L42830 17170
L42830 17010
L42730 17010
" />
<path d="M43040 17220
L43040 16720
L43230 16720
L43280 16750
L43310 16770
L43330 16820
L43330 16890
L43310 16940
L43280 16960
L43230 16980
L43040 16980
" />
<path d="M43710 16960
L43780 16980
L43810 17010
L43830 17050
L43830 17130
L43810 17170
L43780 17200
L43730 17220
L43540 17220
L43540 16720
L43710 16720
L43760 16750
L43780 16770
L43810 16820
L43810 16860
L43780 16910
L43760 16940
L43710 16960
L43540 16960
" />
<path d="M44310 17220
L44020 17220
" />
<path d="M44160 17220
L44160 16720
L44120 16790
L44070 16840
L44020 16860
" />
<path d="M41350 16420
L41380 16400
L41420 16370
L41540 16370
L41590 16400
L41610 16420
L41640 16470
L41640 16510
L41610 16590
L41330 16870
L41640 16870
" />
<path d="M42000 18000
L41000 18000
" />
<path d="M42810 17750
L42760 17720
L42690 17720
L42620 17750
L42570 17790
L42540 17840
L42520 17940
L42520 18010
L42540 18100
L42570 18150
L42620 18200
L42690 18220
L42730 18220
L42810 18200
L42830 18170
L42830 18010
L42730 18010
" />
<path d="M43040 18220
L43040 17720
L43230 17720
L43280 17750
L43310 17770
L43330 17820
L43330 17890
L43310 17940
L43280 17960
L43230 17980
L43040 17980
" />
<path d="M43710 17960
L43780 17980
L43810 18010
L43830 18050
L43830 18130
L43810 18170
L43780 18200
L43730 18220
L43540 18220
L43540 17720
L43710 17720
L43760 17750
L43780 17770
L43810 17820
L43810 17860
L43780 17910
L43760 17940
L43710 17960
L43540 17960
" />
<path d="M44020 17770
L44040 17750
L44090 17720
L44210 17720
L44260 17750
L44280 17770
L44310 17820
L44310 17860
L44280 17940
L44000 18220
L44310 18220
" />
<path d="M41330 17370
L41640 17370
L41470 17560
L41540 17560
L41590 17590
L41610 17610
L41640 17660
L41640 17780
L41610 17820
L41590 17850
L41540 17870
L41400 17870
L41350 17850
L41330 17820
" />
<path d="M42000 19000
L41000 19000
" />
<path d="M42810 18750
L42760 18720
L42690 18720
L42620 18750
L42570 18790
L42540 18840
L42520 18940
L42520 19010
L42540 19100
L42570 19150
L42620 19200
L42690 19220
L42730 19220
L42810 19200
L42830 19170
L42830 19010
L42730 19010
" />
<path d="M43040 19220
L43040 18720
L43230 18720
L43280 18750
L43310 18770
L43330 18820
L43330 18890
L43310 18940
L43280 18960
L43230 18980
L43040 18980
" />
<path d="M43710 18960
L43780 18980
L43810 19010
L43830 19050
L43830 19130
L43810 19170
L43780 19200
L43730 19220
L43540 19220
L43540 18720
L43710 18720
L43760 18750
L43780 18770
L43810 18820
L43810 18860
L43780 18910
L43760 18940
L43710 18960
L43540 18960
" />
<path d="M44000 18720
L44310 18720
L44140 18910
L44210 18910
L44260 18940
L44280 18960
L44310 19010
L44310 19130
L44280 19170
L44260 19200
L44210 19220
L44070 19220
L44020 19200
L44000 19170
" />
<path d="M41590 18540
L41590 18870
" />
<path d="M41470 18350
L41350 18700
L41660 18700
" />
<path d="M42000 20000
L41000 20000
" />
<path d="M42810 19750
L42760 19720
L42690 19720
L42620 19750
L42570 19790
L42540 19840
L42520 19940
L42520 20010
L42540 20100
L42570 20150
L42620 20200
L42690 20220
L42730 20220
L42810 20200
L42830 20170
L42830 20010
L42730 20010
" />
<path d="M43040 20220
L43040 19720
L43230 19720
L43280 19750
L43310 19770
L43330 19820
L43330 19890
L43310 19940
L43280 19960
L43230 19980
L43040 19980
" />
<path d="M43710 19960
L43780 19980
L43810 20010
L43830 20050
L43830 20130
L43810 20170
L43780 20200
L43730 20220
L43540 20220
L43540 19720
L43710 19720
L43760 19750
L43780 19770
L43810 19820
L43810 19860
L43780 19910
L43760 19940
L43710 19960
L43540 19960
" />
<path d="M44260 19890
L44260 20220
" />
<path d="M44140 19700
L44020 20050
L44330 20050
" />
<path d="M41610 19370
L41380 19370
L41350 19610
L41380 19590
L41420 19560
L41540 19560
L41590 19590
L41610 19610
L41640 19660
L41640 19780
L41610 19820
L41590 19850
L41540 19870
L41420 19870
L41380 19850
L41350 19820
" />
<path d="M42000 21000
L41000 21000
" />
<path d="M42810 20750
L42760 20720
L42690 20720
L42620 20750
L42570 20790
L42540 20840
L42520 20940
L42520 21010
L42540 21100
L42570 21150
L42620 21200
L42690 21220
L42730 21220
L42810 21200
L42830 21170
L42830 21010
L42730 21010
" />
<path d="M43040 21220
L43040 20720
L43230 20720
L43280 20750
L43310 20770
L43330 20820
L43330 20890
L43310 20940
L43280 20960
L43230 20980
L43040 20980
" />
<path d="M43710 20960
L43780 20980
L43810 21010
L43830 21050
L43830 21130
L43810 21170
L43780 21200
L43730 21220
L43540 21220
L43540 20720
L43710 20720
L43760 20750
L43780 20770
L43810 20820
L43810 20860
L43780 20910
L43760 20940
L43710 20960
L43540 20960
" />
<path d="M44280 20720
L44040 20720
L44020 20960
L44040 20940
L44090 20910
L44210 20910
L44260 20940
L44280 20960
L44310 21010
L44310 21130
L44280 21170
L44260 21200
L44210 21220
L44090 21220
L44040 21200
L44020 21170
" />
<path d="M41590 20370
L41500 20370
L41450 20400
L41420 20420
L41380 20490
L41350 20590
L41350 20780
L41380 20820
L41400 20850
L41450 20870
L41540 20870
L41590 20850
L41610 20820
L41640 20780
L41640 20660
L41610 20610
L41590 20590
L41540 20560
L41450 20560
L41400 20590
L41380 20610
L41350 20660
" />
<path d="M42000 22000
L41000 22000
" />
<path d="M42810 21750
L42760 21720
L42690 21720
L42620 21750
L42570 21790
L42540 21840
L42520 21940
L42520 22010
L42540 22100
L42570 22150
L42620 22200
L42690 22220
L42730 22220
L42810 22200
L42830 22170
L42830 22010
L42730 22010
" />
<path d="M43040 22220
L43040 21720
L43230 21720
L43280 21750
L43310 21770
L43330 21820
L43330 21890
L43310 21940
L43280 21960
L43230 21980
L43040 21980
" />
<path d="M43710 21960
L43780 21980
L43810 22010
L43830 22050
L43830 22130
L43810 22170
L43780 22200
L43730 22220
L43540 22220
L43540 21720
L43710 21720
L43760 21750
L43780 21770
L43810 21820
L43810 21860
L43780 21910
L43760 21940
L43710 21960
L43540 21960
" />
<path d="M44260 21720
L44160 21720
L44120 21750
L44090 21770
L44040 21840
L44020 21940
L44020 22130
L44040 22170
L44070 22200
L44120 22220
L44210 22220
L44260 22200
L44280 22170
L44310 22130
L44310 22010
L44280 21960
L44260 21940
L44210 21910
L44120 21910
L44070 21940
L44040 21960
L44020 22010
" />
<path d="M41330 21370
L41660 21370
L41450 21870
" />
<path d="M42000 23000
L41000 23000
" />
<path d="M42810 22750
L42760 22720
L42690 22720
L42620 22750
L42570 22790
L42540 22840
L42520 22940
L42520 23010
L42540 23100
L42570 23150
L42620 23200
L42690 23220
L42730 23220
L42810 23200
L42830 23170
L42830 23010
L42730 23010
" />
<path d="M43040 23220
L43040 22720
L43230 22720
L43280 22750
L43310 22770
L43330 22820
L43330 22890
L43310 22940
L43280 22960
L43230 22980
L43040 22980
" />
<path d="M43710 22960
L43780 22980
L43810 23010
L43830 23050
L43830 23130
L43810 23170
L43780 23200
L43730 23220
L43540 23220
L43540 22720
L43710 22720
L43760 22750
L43780 22770
L43810 22820
L43810 22860
L43780 22910
L43760 22940
L43710 22960
L43540 22960
" />
<path d="M44000 22720
L44330 22720
L44120 23220
" />
<path d="M41450 22590
L41400 22560
L41380 22540
L41350 22490
L41350 22470
L41380 22420
L41400 22400
L41450 22370
L41540 22370
L41590 22400
L41610 22420
L41640 22470
L41640 22490
L41610 22540
L41590 22560
L41540 22590
L41450 22590
L41400 22610
L41380 22630
L41350 22680
L41350 22780
L41380 22820
L41400 22850
L41450 22870
L41540 22870
L41590 22850
L41610 22820
L41640 22780
L41640 22680
L41610 22630
L41590 22610
L41540 22590
" />
<path d="M46000 15000
L46000 14000
" />
<path d="M45720 16810
L46220 16640
L45720 16470
" />
<path d="M46170 16020
L46200 16040
L46220 16120
L46220 16160
L46200 16230
L46150 16280
L46100 16310
L46010 16330
L45940 16330
L45840 16310
L45790 16280
L45750 16230
L45720 16160
L45720 16120
L45750 16040
L45770 16020
" />
<path d="M46170 15520
L46200 15540
L46220 15620
L46220 15660
L46200 15730
L46150 15780
L46100 15810
L46010 15830
L45940 15830
L45840 15810
L45790 15780
L45750 15730
L45720 15660
L45720 15620
L45750 15540
L45770 15520
" />
<path d="M45870 14590
L45870 14500
L45850 14450
L45820 14420
L45750 14380
L45660 14350
L45470 14350
L45420 14380
L45400 14400
L45370 14450
L45370 14540
L45400 14590
L45420 14610
L45470 14640
L45590 14640
L45630 14610
L45660 14590
L45680 14540
L45680 14450
L45660 14400
L45630 14380
L45590 14350
" />
<path d="M46000 33000
L46000 34000
" />
<path d="M45750 32180
L45720 32230
L45720 32300
L45750 32370
L45790 32420
L45840 32450
L45940 32470
L46010 32470
L46100 32450
L46150 32420
L46200 32370
L46220 32300
L46220 32260
L46200 32180
L46170 32160
L46010 32160
L46010 32260
" />
<path d="M46220 31950
L45720 31950
L46220 31660
L45720 31660
" />
<path d="M46220 31420
L45720 31420
L45720 31300
L45750 31230
L45790 31180
L45840 31160
L45940 31140
L46010 31140
L46100 31160
L46150 31180
L46200 31230
L46220 31300
L46220 31420
" />
<path d="M45870 33590
L45870 33880
" />
<path d="M45870 33730
L45370 33730
L45440 33780
L45490 33830
L45510 33880
" />
<path d="M45370 33280
L45370 33230
L45400 33190
L45420 33160
L45470 33140
L45560 33110
L45680 33110
L45780 33140
L45820 33160
L45850 33190
L45870 33230
L45870 33280
L45850 33330
L45820 33350
L45780 33380
L45680 33400
L45560 33400
L45470 33380
L45420 33350
L45400 33330
L45370 33280
" />
<path d="M50000 21000
L51000 21000
" />
<path d="M48110 21220
L48110 20720
" />
<path d="M48350 21220
L48350 20720
L48640 21220
L48640 20720
" />
<path d="M48800 20720
L49090 20720
" />
<path d="M48950 21220
L48950 20720
" />
<path d="M49230 21080
L49470 21080
" />
<path d="M49180 21220
L49350 20720
L49520 21220
" />
<path d="M50110 20420
L50140 20400
L50190 20370
L50300 20370
L50350 20400
L50380 20420
L50400 20470
L50400 20510
L50380 20590
L50090 20870
L50400 20870
" />
<path d="M50710 20370
L50760 20370
L50800 20400
L50830 20420
L50850 20470
L50880 20560
L50880 20680
L50850 20780
L50830 20820
L50800 20850
L50760 20870
L50710 20870
L50660 20850
L50640 20820
L50610 20780
L50590 20680
L50590 20560
L50610 20470
L50640 20420
L50660 20400
L50710 20370
" />
<path d="M42000 25000
L41000 25000
" />
<path d="M42810 24750
L42760 24720
L42690 24720
L42620 24750
L42570 24790
L42540 24840
L42520 24940
L42520 25010
L42540 25100
L42570 25150
L42620 25200
L42690 25220
L42730 25220
L42810 25200
L42830 25170
L42830 25010
L42730 25010
" />
<path d="M43040 25220
L43040 24720
L43230 24720
L43280 24750
L43310 24770
L43330 24820
L43330 24890
L43310 24940
L43280 24960
L43230 24980
L43040 24980
" />
<path d="M43520 25080
L43760 25080
" />
<path d="M43470 25220
L43640 24720
L43810 25220
" />
<path d="M44070 24720
L44120 24720
L44160 24750
L44190 24770
L44210 24820
L44230 24910
L44230 25030
L44210 25130
L44190 25170
L44160 25200
L44120 25220
L44070 25220
L44020 25200
L44000 25170
L43970 25130
L43950 25030
L43950 24910
L43970 24820
L44000 24770
L44020 24750
L44070 24720
" />
<path d="M41110 24420
L41140 24400
L41190 24370
L41300 24370
L41350 24400
L41380 24420
L41400 24470
L41400 24510
L41380 24590
L41090 24870
L41400 24870
" />
<path d="M41880 24870
L41590 24870
" />
<path d="M41730 24870
L41730 24370
L41690 24440
L41640 24490
L41590 24510
" />
<path d="M50000 27000
L51000 27000
" />
<path d="M48280 27200
L48350 27220
L48470 27220
L48520 27200
L48540 27170
L48570 27130
L48570 27080
L48540 27030
L48520 27010
L48470 26980
L48370 26960
L48330 26940
L48300 26910
L48280 26860
L48280 26820
L48300 26770
L48330 26750
L48370 26720
L48490 26720
L48570 26750
" />
<path d="M49070 27170
L49040 27200
L48970 27220
L48920 27220
L48850 27200
L48800 27150
L48780 27100
L48760 27010
L48760 26940
L48780 26840
L48800 26790
L48850 26750
L48920 26720
L48970 26720
L49040 26750
L49070 26770
" />
<path d="M49520 27220
L49280 27220
L49280 26720
" />
<path d="M50400 26870
L50110 26870
" />
<path d="M50260 26870
L50260 26370
L50210 26440
L50160 26490
L50110 26510
" />
<path d="M50590 26420
L50610 26400
L50660 26370
L50780 26370
L50830 26400
L50850 26420
L50880 26470
L50880 26510
L50850 26590
L50570 26870
L50880 26870
" />
<path d="M42000 26000
L41000 26000
" />
<path d="M42810 25750
L42760 25720
L42690 25720
L42620 25750
L42570 25790
L42540 25840
L42520 25940
L42520 26010
L42540 26100
L42570 26150
L42620 26200
L42690 26220
L42730 26220
L42810 26200
L42830 26170
L42830 26010
L42730 26010
" />
<path d="M43040 26220
L43040 25720
L43230 25720
L43280 25750
L43310 25770
L43330 25820
L43330 25890
L43310 25940
L43280 25960
L43230 25980
L43040 25980
" />
<path d="M43520 26080
L43760 26080
" />
<path d="M43470 26220
L43640 25720
L43810 26220
" />
<path d="M44230 26220
L43950 26220
" />
<path d="M44090 26220
L44090 25720
L44040 25790
L44000 25840
L43950 25860
" />
<path d="M41110 25420
L41140 25400
L41190 25370
L41300 25370
L41350 25400
L41380 25420
L41400 25470
L41400 25510
L41380 25590
L41090 25870
L41400 25870
" />
<path d="M41590 25420
L41610 25400
L41660 25370
L41780 25370
L41830 25400
L41850 25420
L41880 25470
L41880 25510
L41850 25590
L41570 25870
L41880 25870
" />
<path d="M50000 28000
L51000 28000
" />
<path d="M48260 28200
L48330 28220
L48450 28220
L48490 28200
L48520 28170
L48540 28130
L48540 28080
L48520 28030
L48490 28010
L48450 27980
L48350 27960
L48300 27940
L48280 27910
L48260 27860
L48260 27820
L48280 27770
L48300 27750
L48350 27720
L48470 27720
L48540 27750
" />
<path d="M48760 28220
L48760 27720
L48870 27720
L48950 27750
L48990 27790
L49020 27840
L49040 27940
L49040 28010
L49020 28100
L48990 28150
L48950 28200
L48870 28220
L48760 28220
" />
<path d="M49230 28080
L49470 28080
" />
<path d="M49180 28220
L49350 27720
L49520 28220
" />
<path d="M50400 27870
L50110 27870
" />
<path d="M50260 27870
L50260 27370
L50210 27440
L50160 27490
L50110 27510
" />
<path d="M50570 27370
L50880 27370
L50710 27560
L50780 27560
L50830 27590
L50850 27610
L50880 27660
L50880 27780
L50850 27820
L50830 27850
L50780 27870
L50640 27870
L50590 27850
L50570 27820
" />
<path d="M42000 27000
L41000 27000
" />
<path d="M42810 26750
L42760 26720
L42690 26720
L42620 26750
L42570 26790
L42540 26840
L42520 26940
L42520 27010
L42540 27100
L42570 27150
L42620 27200
L42690 27220
L42730 27220
L42810 27200
L42830 27170
L42830 27010
L42730 27010
" />
<path d="M43040 27220
L43040 26720
L43230 26720
L43280 26750
L43310 26770
L43330 26820
L43330 26890
L43310 26940
L43280 26960
L43230 26980
L43040 26980
" />
<path d="M43520 27080
L43760 27080
" />
<path d="M43470 27220
L43640 26720
L43810 27220
" />
<path d="M43950 26770
L43970 26750
L44020 26720
L44140 26720
L44190 26750
L44210 26770
L44230 26820
L44230 26860
L44210 26940
L43930 27220
L44230 27220
" />
<path d="M41110 26420
L41140 26400
L41190 26370
L41300 26370
L41350 26400
L41380 26420
L41400 26470
L41400 26510
L41380 26590
L41090 26870
L41400 26870
" />
<path d="M41570 26370
L41880 26370
L41710 26560
L41780 26560
L41830 26590
L41850 26610
L41880 26660
L41880 26780
L41850 26820
L41830 26850
L41780 26870
L41640 26870
L41590 26850
L41570 26820
" />
<path d="M42000 28000
L41000 28000
" />
<path d="M42810 27750
L42760 27720
L42690 27720
L42620 27750
L42570 27790
L42540 27840
L42520 27940
L42520 28010
L42540 28100
L42570 28150
L42620 28200
L42690 28220
L42730 28220
L42810 28200
L42830 28170
L42830 28010
L42730 28010
" />
<path d="M43040 28220
L43040 27720
L43230 27720
L43280 27750
L43310 27770
L43330 27820
L43330 27890
L43310 27940
L43280 27960
L43230 27980
L43040 27980
" />
<path d="M43520 28080
L43760 28080
" />
<path d="M43470 28220
L43640 27720
L43810 28220
" />
<path d="M43930 27720
L44230 27720
L44070 27910
L44140 27910
L44190 27940
L44210 27960
L44230 28010
L44230 28130
L44210 28170
L44190 28200
L44140 28220
L44000 28220
L43950 28200
L43930 28170
" />
<path d="M41110 27420
L41140 27400
L41190 27370
L41300 27370
L41350 27400
L41380 27420
L41400 27470
L41400 27510
L41380 27590
L41090 27870
L41400 27870
" />
<path d="M41830 27540
L41830 27870
" />
<path d="M41710 27350
L41590 27700
L41900 27700
" />
<path d="M50000 30000
L51000 30000
" />
<path d="M48760 30080
L48990 30080
" />
<path d="M48710 30220
L48870 29720
L49040 30220
" />
<path d="M49300 29720
L49350 29720
L49400 29750
L49420 29770
L49450 29820
L49470 29910
L49470 30030
L49450 30130
L49420 30170
L49400 30200
L49350 30220
L49300 30220
L49260 30200
L49230 30170
L49210 30130
L49180 30030
L49180 29910
L49210 29820
L49230 29770
L49260 29750
L49300 29720
" />
<path d="M50400 29870
L50110 29870
" />
<path d="M50260 29870
L50260 29370
L50210 29440
L50160 29490
L50110 29510
" />
<path d="M50850 29370
L50610 29370
L50590 29610
L50610 29590
L50660 29560
L50780 29560
L50830 29590
L50850 29610
L50880 29660
L50880 29780
L50850 29820
L50830 29850
L50780 29870
L50660 29870
L50610 29850
L50590 29820
" />
<path d="M42000 29000
L41000 29000
" />
<path d="M42810 28750
L42760 28720
L42690 28720
L42620 28750
L42570 28790
L42540 28840
L42520 28940
L42520 29010
L42540 29100
L42570 29150
L42620 29200
L42690 29220
L42730 29220
L42810 29200
L42830 29170
L42830 29010
L42730 29010
" />
<path d="M43040 29220
L43040 28720
L43230 28720
L43280 28750
L43310 28770
L43330 28820
L43330 28890
L43310 28940
L43280 28960
L43230 28980
L43040 28980
" />
<path d="M43520 29080
L43760 29080
" />
<path d="M43470 29220
L43640 28720
L43810 29220
" />
<path d="M44190 28890
L44190 29220
" />
<path d="M44070 28700
L43950 29050
L44260 29050
" />
<path d="M41110 28420
L41140 28400
L41190 28370
L41300 28370
L41350 28400
L41380 28420
L41400 28470
L41400 28510
L41380 28590
L41090 28870
L41400 28870
" />
<path d="M41850 28370
L41610 28370
L41590 28610
L41610 28590
L41660 28560
L41780 28560
L41830 28590
L41850 28610
L41880 28660
L41880 28780
L41850 28820
L41830 28850
L41780 28870
L41660 28870
L41610 28850
L41590 28820
" />
<path d="M50000 31000
L51000 31000
" />
<path d="M48760 31080
L48990 31080
" />
<path d="M48710 31220
L48870 30720
L49040 31220
" />
<path d="M49470 31220
L49180 31220
" />
<path d="M49330 31220
L49330 30720
L49280 30790
L49230 30840
L49180 30860
" />
<path d="M50400 30870
L50110 30870
" />
<path d="M50260 30870
L50260 30370
L50210 30440
L50160 30490
L50110 30510
" />
<path d="M50830 30370
L50730 30370
L50690 30400
L50660 30420
L50610 30490
L50590 30590
L50590 30780
L50610 30820
L50640 30850
L50690 30870
L50780 30870
L50830 30850
L50850 30820
L50880 30780
L50880 30660
L50850 30610
L50830 30590
L50780 30560
L50690 30560
L50640 30590
L50610 30610
L50590 30660
" />
<path d="M42000 30000
L41000 30000
" />
<path d="M42810 29750
L42760 29720
L42690 29720
L42620 29750
L42570 29790
L42540 29840
L42520 29940
L42520 30010
L42540 30100
L42570 30150
L42620 30200
L42690 30220
L42730 30220
L42810 30200
L42830 30170
L42830 30010
L42730 30010
" />
<path d="M43040 30220
L43040 29720
L43230 29720
L43280 29750
L43310 29770
L43330 29820
L43330 29890
L43310 29940
L43280 29960
L43230 29980
L43040 29980
" />
<path d="M43520 30080
L43760 30080
" />
<path d="M43470 30220
L43640 29720
L43810 30220
" />
<path d="M44210 29720
L43970 29720
L43950 29960
L43970 29940
L44020 29910
L44140 29910
L44190 29940
L44210 29960
L44230 30010
L44230 30130
L44210 30170
L44190 30200
L44140 30220
L44020 30220
L43970 30200
L43950 30170
" />
<path d="M41110 29420
L41140 29400
L41190 29370
L41300 29370
L41350 29400
L41380 29420
L41400 29470
L41400 29510
L41380 29590
L41090 29870
L41400 29870
" />
<path d="M41830 29370
L41730 29370
L41690 29400
L41660 29420
L41610 29490
L41590 29590
L41590 29780
L41610 29820
L41640 29850
L41690 29870
L41780 29870
L41830 29850
L41850 29820
L41880 29780
L41880 29660
L41850 29610
L41830 29590
L41780 29560
L41690 29560
L41640 29590
L41610 29610
L41590 29660
" />
<path d="M50000 32000
L51000 32000
" />
<path d="M48760 32080
L48990 32080
" />
<path d="M48710 32220
L48870 31720
L49040 32220
" />
<path d="M49180 31770
L49210 31750
L49260 31720
L49370 31720
L49420 31750
L49450 31770
L49470 31820
L49470 31860
L49450 31940
L49160 32220
L49470 32220
" />
<path d="M50400 31870
L50110 31870
" />
<path d="M50260 31870
L50260 31370
L50210 31440
L50160 31490
L50110 31510
" />
<path d="M50570 31370
L50900 31370
L50690 31870
" />
<path d="M42000 31000
L41000 31000
" />
<path d="M42810 30750
L42760 30720
L42690 30720
L42620 30750
L42570 30790
L42540 30840
L42520 30940
L42520 31010
L42540 31100
L42570 31150
L42620 31200
L42690 31220
L42730 31220
L42810 31200
L42830 31170
L42830 31010
L42730 31010
" />
<path d="M43040 31220
L43040 30720
L43230 30720
L43280 30750
L43310 30770
L43330 30820
L43330 30890
L43310 30940
L43280 30960
L43230 30980
L43040 30980
" />
<path d="M43520 31080
L43760 31080
" />
<path d="M43470 31220
L43640 30720
L43810 31220
" />
<path d="M44190 30720
L44090 30720
L44040 30750
L44020 30770
L43970 30840
L43950 30940
L43950 31130
L43970 31170
L44000 31200
L44040 31220
L44140 31220
L44190 31200
L44210 31170
L44230 31130
L44230 31010
L44210 30960
L44190 30940
L44140 30910
L44040 30910
L44000 30940
L43970 30960
L43950 31010
" />
<path d="M41110 30420
L41140 30400
L41190 30370
L41300 30370
L41350 30400
L41380 30420
L41400 30470
L41400 30510
L41380 30590
L41090 30870
L41400 30870
" />
<path d="M41570 30370
L41900 30370
L41690 30870
" />
<path d="M50000 16000
L51000 16000
" />
<path d="M47390 15580
L47800 15580
" />
<path d="M47710 16220
L47540 15980
" />
<path d="M47420 16220
L47420 15720
L47610 15720
L47660 15750
L47680 15770
L47710 15820
L47710 15890
L47680 15940
L47660 15960
L47610 15980
L47420 15980
" />
<path d="M47800 15580
L48260 15580
" />
<path d="M47920 15960
L48090 15960
" />
<path d="M48160 16220
L47920 16220
L47920 15720
L48160 15720
" />
<path d="M48260 15580
L48730 15580
" />
<path d="M48350 16200
L48420 16220
L48540 16220
L48590 16200
L48610 16170
L48640 16130
L48640 16080
L48610 16030
L48590 16010
L48540 15980
L48450 15960
L48400 15940
L48370 15910
L48350 15860
L48350 15820
L48370 15770
L48400 15750
L48450 15720
L48570 15720
L48640 15750
" />
<path d="M48730 15580
L49180 15580
" />
<path d="M48850 15960
L49020 15960
" />
<path d="M49090 16220
L48850 16220
L48850 15720
L49090 15720
" />
<path d="M49180 15580
L49570 15580
" />
<path d="M49230 15720
L49520 15720
" />
<path d="M49370 16220
L49370 15720
" />
<path d="M50400 15870
L50110 15870
" />
<path d="M50260 15870
L50260 15370
L50210 15440
L50160 15490
L50110 15510
" />
<path d="M50690 15590
L50640 15560
L50610 15540
L50590 15490
L50590 15470
L50610 15420
L50640 15400
L50690 15370
L50780 15370
L50830 15400
L50850 15420
L50880 15470
L50880 15490
L50850 15540
L50830 15560
L50780 15590
L50690 15590
L50640 15610
L50610 15630
L50590 15680
L50590 15780
L50610 15820
L50640 15850
L50690 15870
L50780 15870
L50830 15850
L50850 15820
L50880 15780
L50880 15680
L50850 15630
L50830 15610
L50780 15590
" />
<path d="M42000 32000
L41000 32000
" />
<path d="M42810 31750
L42760 31720
L42690 31720
L42620 31750
L42570 31790
L42540 31840
L42520 31940
L42520 32010
L42540 32100
L42570 32150
L42620 32200
L42690 32220
L42730 32220
L42810 32200
L42830 32170
L42830 32010
L42730 32010
" />
<path d="M43040 32220
L43040 31720
L43230 31720
L43280 31750
L43310 31770
L43330 31820
L43330 31890
L43310 31940
L43280 31960
L43230 31980
L43040 31980
" />
<path d="M43520 32080
L43760 32080
" />
<path d="M43470 32220
L43640 31720
L43810 32220
" />
<path d="M43930 31720
L44260 31720
L44040 32220
" />
<path d="M41110 31420
L41140 31400
L41190 31370
L41300 31370
L41350 31400
L41380 31420
L41400 31470
L41400 31510
L41380 31590
L41090 31870
L41400 31870
" />
<path d="M41690 31590
L41640 31560
L41610 31540
L41590 31490
L41590 31470
L41610 31420
L41640 31400
L41690 31370
L41780 31370
L41830 31400
L41850 31420
L41880 31470
L41880 31490
L41850 31540
L41830 31560
L41780 31590
L41690 31590
L41640 31610
L41610 31630
L41590 31680
L41590 31780
L41610 31820
L41640 31850
L41690 31870
L41780 31870
L41830 31850
L41850 31820
L41880 31780
L41880 31680
L41850 31630
L41830 31610
L41780 31590
" />
<path d="M50000 20000
L51000 20000
" />
<path d="M48040 20220
L48040 19720
" />
<path d="M48280 20220
L48280 19720
L48570 20220
L48570 19720
" />
<path d="M48730 19720
L49020 19720
" />
<path d="M48870 20220
L48870 19720
" />
<path d="M49350 19960
L49420 19980
L49450 20010
L49470 20050
L49470 20130
L49450 20170
L49420 20200
L49370 20220
L49180 20220
L49180 19720
L49350 19720
L49400 19750
L49420 19770
L49450 19820
L49450 19860
L49420 19910
L49400 19940
L49350 19960
L49180 19960
" />
<path d="M50400 19870
L50110 19870
" />
<path d="M50260 19870
L50260 19370
L50210 19440
L50160 19490
L50110 19510
" />
<path d="M50640 19870
L50730 19870
L50780 19850
L50800 19820
L50850 19750
L50880 19660
L50880 19470
L50850 19420
L50830 19400
L50780 19370
L50690 19370
L50640 19400
L50610 19420
L50590 19470
L50590 19590
L50610 19630
L50640 19660
L50690 19680
L50780 19680
L50830 19660
L50850 19630
L50880 19590
" />
<path d="M42610 13740
L42610 14150
L42640 14190
L42660 14220
L42710 14240
L42800 14240
L42850 14220
L42880 14190
L42900 14150
L42900 13740
" />
<path d="M43400 14240
L43110 14240
" />
<path d="M43260 14240
L43260 13740
L43210 13810
L43160 13860
L43110 13880
" />
<path d="M46640 34240
L46640 33740
L46800 34100
L46970 33740
L46970 34240
" />
<path d="M47500 34190
L47470 34220
L47400 34240
L47350 34240
L47280 34220
L47230 34170
L47210 34120
L47190 34030
L47190 33960
L47210 33860
L47230 33810
L47280 33770
L47350 33740
L47400 33740
L47470 33770
L47500 33790
" />
<path d="M47710 34240
L47710 33740
L47900 33740
L47950 33770
L47970 33790
L48000 33840
L48000 33910
L47970 33960
L47950 33980
L47900 34000
L47710 34000
" />
<path d="M48190 33790
L48210 33770
L48260 33740
L48380 33740
L48420 33770
L48450 33790
L48470 33840
L48470 33880
L48450 33960
L48160 34240
L48470 34240
" />
<path d="M48640 33740
L48950 33740
L48780 33930
L48850 33930
L48900 33960
L48920 33980
L48950 34030
L48950 34150
L48920 34190
L48900 34220
L48850 34240
L48710 34240
L48660 34220
L48640 34190
" />
<path d="M49260 33740
L49300 33740
L49350 33770
L49380 33790
L49400 33840
L49420 33930
L49420 34050
L49400 34150
L49380 34190
L49350 34220
L49300 34240
L49260 34240
L49210 34220
L49190 34190
L49160 34150
L49140 34050
L49140 33930
L49160 33840
L49190 33790
L49210 33770
L49260 33740
" />
<path d="M49900 34240
L49610 34240
" />
<path d="M49760 34240
L49760 33740
L49710 33810
L49660 33860
L49610 33880
" />
<path d="M50070 33740
L50400 33740
L50190 34240
" />
<path d="M41000 25000
L28000 25000
" />
<path d="M30000 27500
L30000 26000
" />
<path d="M30000 26000
L41000 26000
" />
<path d="M30000 33500
L32500 33500
" />
<path d="M32500 33500
L32500 27000
" />
<path d="M32500 27000
L41000 27000
" />
</g>
<g style="fill:#000000; fill-opacity:0.0; 
stroke:#000000; stroke-width:0; stroke-opacity:1; 
stroke-linecap:round; stroke-linejoin:round;">
</g>
<g style="fill:#000000; fill-opacity:0.0; 
stroke:#000000; stroke-width:60; stroke-opacity:1; 
stroke-linecap:round; stroke-linejoin:round;">
<polyline fill="none;"
points="28000,34000
28000,34500
28500,34500
28000,35000
27500,34500
28000,34500
" /> 
<path d="M27660 35500
L27620 35470
L27550 35470
L27470 35500
L27430 35540
L27400 35590
L27380 35690
L27380 35760
L27400 35850
L27430 35900
L27470 35950
L27550 35970
L27590 35970
L27660 35950
L27690 35920
L27690 35760
L27590 35760
" />
<path d="M27900 35970
L27900 35470
L28190 35970
L28190 35470
" />
<path d="M28430 35970
L28430 35470
L28550 35470
L28620 35500
L28660 35540
L28690 35590
L28710 35690
L28710 35760
L28690 35850
L28660 35900
L28620 35950
L28550 35970
L28430 35970
" />
<path d="M28000 34000
L28000 33500
" />
</g>
<g style="fill:#000000; fill-opacity:0.0; 
stroke:#000000; stroke-width:0; stroke-opacity:1; 
stroke-linecap:round; stroke-linejoin:round;">
</g>
<g style="fill:#000000; fill-opacity:0.0; 
stroke:#000000; stroke-width:60; stroke-opacity:1; 
stroke-linecap:round; stroke-linejoin:round;">
<polyline fill="none;"
points="29000,27000
29000,26500
28500,26500
29000,26000
29500,26500
29000,26500
" /> 
<path d="M28610 25220
L28570 25190
L28500 25190
L28420 25220
L28380 25260
L28350 25310
L28330 25410
L28330 25480
L28350 25570
L28380 25620
L28420 25670
L28500 25690
L28540 25690
L28610 25670
L28640 25640
L28640 25480
L28540 25480
" />
<path d="M28850 25690
L28850 25190
L29140 25690
L29140 25190
" />
<path d="M29380 25690
L29380 25190
L29500 25190
L29570 25220
L29610 25260
L29640 25310
L29660 25410
L29660 25480
L29640 25570
L29610 25620
L29570 25670
L29500 25690
L29380 25690
" />
<path d="M29000 27000
L29000 27500
" />
</g>
<g style="fill:#000000; fill-opacity:0.0; 
stroke:#000000; stroke-width:0; stroke-opacity:1; 
stroke-linecap:round; stroke-linejoin:round;">
</g>
<g style="fill:#000000; fill-opacity:0.0; 
stroke:#000000; stroke-width:60; stroke-opacity:1; 
stroke-linecap:round; stroke-linejoin:round;">
<polyline fill="none;"
points="46000,34500
46000,35000
46500,35000
46000,35500
45500,35000
46000,35000
" /> 
<path d="M45660 36000
L45620 35970
L45550 35970
L45470 36000
L45430 36040
L45400 36090
L45380 36190
L45380 36260
L45400 36350
L45430 36400
L45470 36450
L45550 36470
L45590 36470
L45660 36450
L45690 36420
L45690 36260
L45590 36260
" />
<path d="M45900 36470
L45900 35970
L46190 36470
L46190 35970
" />
<path d="M46430 36470
L46430 35970
L46550 35970
L46620 36000
L46660 36040
L46690 36090
L46710 36190
L46710 36260
L46690 36350
L46660 36400
L46620 36450
L46550 36470
L46430 36470
" />
<path d="M46000 34500
L46000 34000
" />
</g>
<g style="fill:#000000; fill-opacity:0.0; 
stroke:#000000; stroke-width:0; stroke-opacity:1; 
stroke-linecap:round; stroke-linejoin:round;">
</g>
<g style="fill:#000000; fill-opacity:0.0; 
stroke:#000000; stroke-width:60; stroke-opacity:1; 
stroke-linecap:round; stroke-linejoin:round;">
<circle cx="46000" cy="12750" r="250" /> 
<polyline fill="none;"
points="46000,13500
46000,13000
" /> 
<path d="M45500 11510
L45670 12010
L45830 11510
" />
<path d="M46280 11960
L46260 11990
L46190 12010
L46140 12010
L46070 11990
L46020 11940
L46000 11890
L45970 11800
L45970 11730
L46000 11630
L46020 11580
L46070 11540
L46140 11510
L46190 11510
L46260 11540
L46280 11560
" />
<path d="M46780 11960
L46760 11990
L46690 12010
L46640 12010
L46570 11990
L46520 11940
L46500 11890
L46470 11800
L46470 11730
L46500 11630
L46520 11580
L46570 11540
L46640 11510
L46690 11510
L46760 11540
L46780 11560
" />
<path d="M46000 13500
L46000 14000
" />
</g>
<g style="fill:#000000; fill-opacity:0.0; 
stroke:#000000; stroke-width:0; stroke-opacity:1; 
stroke-linecap:round; stroke-linejoin:round;">
</g>
<g style="fill:#000000; fill-opacity:0.0; 
stroke:#000000; stroke-width:60; stroke-opacity:1; 
stroke-linecap:round; stroke-linejoin:round;">
<rect x="64000" y="20500" width="5000" height="15000" rx="0" />
<path d="M69000 21000
L70000 21000
" />
</g>
<g style="fill:#000000; fill-opacity:0.0; 
stroke:#000000; stroke-width:50; stroke-opacity:1; 
stroke-linecap:round; stroke-linejoin:round;">
<path d="M67570 21140
L67570 20830
L67650 20830
L67690 20840
L67720 20870
L67730 20900
L67750 20960
L67750 21000
L67730 21060
L67720 21090
L67690 21120
L67650 21140
L67570 21140
" />
<path d="M68040 21140
L67870 21140
" />
<path d="M67960 21140
L67960 20830
L67930 20870
L67900 20900
L67870 20910
" />
<path d="M68400 20810
L68130 21210
" />
<path d="M68460 20830
L68640 20830
" />
<path d="M68550 21140
L68550 20830
" />
<path d="M68710 20830
L68920 21140
" />
<path d="M68920 20830
L68710 21140
" />
</g>
<g style="fill:#000000; fill-opacity:0.0; 
stroke:#000000; stroke-width:60; stroke-opacity:1; 
stroke-linecap:round; stroke-linejoin:round;">
<path d="M69600 20880
L69400 20880
" />
<path d="M69500 20880
L69500 20530
L69460 20580
L69430 20610
L69400 20630
" />
<path d="M69000 22000
L70000 22000
" />
</g>
<g style="fill:#000000; fill-opacity:0.0; 
stroke:#000000; stroke-width:50; stroke-opacity:1; 
stroke-linecap:round; stroke-linejoin:round;">
<path d="M67500 22140
L67500 21830
L67570 21830
L67620 21840
L67650 21870
L67660 21900
L67680 21960
L67680 22000
L67660 22060
L67650 22090
L67620 22120
L67570 22140
L67500 22140
" />
<path d="M67870 21830
L67900 21830
L67930 21840
L67940 21850
L67960 21880
L67970 21940
L67970 22020
L67960 22080
L67940 22110
L67930 22120
L67900 22140
L67870 22140
L67840 22120
L67820 22110
L67810 22080
L67790 22020
L67790 21940
L67810 21880
L67820 21850
L67840 21840
L67870 21830
" />
<path d="M68330 21810
L68060 22210
" />
<path d="M68610 22140
L68500 21990
" />
<path d="M68430 22140
L68430 21830
L68550 21830
L68580 21840
L68590 21850
L68610 21880
L68610 21930
L68590 21960
L68580 21970
L68550 21990
L68430 21990
" />
<path d="M68710 21830
L68920 22140
" />
<path d="M68920 21830
L68710 22140
" />
</g>
<g style="fill:#000000; fill-opacity:0.0; 
stroke:#000000; stroke-width:60; stroke-opacity:1; 
stroke-linecap:round; stroke-linejoin:round;">
<path d="M69400 21560
L69410 21550
L69450 21530
L69530 21530
L69560 21550
L69580 21560
L69600 21600
L69600 21630
L69580 21680
L69380 21880
L69600 21880
" />
<path d="M69000 23000
L70000 23000
" />
</g>
<g style="fill:#000000; fill-opacity:0.0; 
stroke:#000000; stroke-width:50; stroke-opacity:1; 
stroke-linecap:round; stroke-linejoin:round;">
<path d="M67810 23140
L67710 22990
" />
<path d="M67630 23140
L67630 22830
L67750 22830
L67780 22840
L67790 22850
L67810 22880
L67810 22930
L67790 22960
L67780 22970
L67750 22990
L67630 22990
" />
<path d="M67940 22970
L68040 22970
" />
<path d="M68090 23140
L67940 23140
L67940 22830
L68090 22830
" />
<path d="M68210 23120
L68250 23140
L68330 23140
L68350 23120
L68370 23110
L68380 23080
L68380 23050
L68370 23020
L68350 23000
L68330 22990
L68270 22970
L68240 22960
L68220 22940
L68210 22910
L68210 22880
L68220 22850
L68240 22840
L68270 22830
L68340 22830
L68380 22840
" />
<path d="M68520 22970
L68620 22970
" />
<path d="M68660 23140
L68520 23140
L68520 22830
L68660 22830
" />
<path d="M68750 22830
L68930 22830
" />
<path d="M68840 23140
L68840 22830
" />
</g>
<g style="fill:#000000; fill-opacity:0.0; 
stroke:#000000; stroke-width:60; stroke-opacity:1; 
stroke-linecap:round; stroke-linejoin:round;">
<path d="M69380 22530
L69600 22530
L69480 22660
L69530 22660
L69560 22680
L69580 22700
L69600 22730
L69600 22810
L69580 22850
L69560 22860
L69530 22880
L69430 22880
L69400 22860
L69380 22850
" />
<path d="M69000 24000
L70000 24000
" />
<path d="M68060 23800
L68030 23780
L67970 23780
L67920 23800
L67880 23840
L67860 23870
L67840 23950
L67840 24000
L67860 24080
L67880 24120
L67920 24150
L67970 24170
L68010 24170
L68060 24150
L68080 24130
L68080 24000
L68010 24000
" />
<path d="M68250 24170
L68250 23780
L68470 24170
L68470 23780
" />
<path d="M68660 24170
L68660 23780
L68750 23780
L68810 23800
L68840 23840
L68860 23870
L68880 23950
L68880 24000
L68860 24080
L68840 24120
L68810 24150
L68750 24170
L68660 24170
" />
<path d="M69560 23650
L69560 23880
" />
<path d="M69480 23510
L69400 23760
L69610 23760
" />
<path d="M69000 25000
L70000 25000
" />
</g>
<g style="fill:#000000; fill-opacity:0.0; 
stroke:#000000; stroke-width:50; stroke-opacity:1; 
stroke-linecap:round; stroke-linejoin:round;">
<path d="M67160 25130
L67160 24830
L67230 24830
L67270 24850
L67300 24870
L67320 24900
L67330 24960
L67330 25000
L67320 25060
L67300 25090
L67270 25120
L67230 25130
L67160 25130
" />
<path d="M67450 24860
L67460 24850
L67490 24830
L67560 24830
L67590 24850
L67600 24860
L67620 24890
L67620 24920
L67600 24960
L67430 25130
L67620 25130
" />
<path d="M67960 24820
L67700 25200
" />
<path d="M68060 25130
L68060 24830
" />
<path d="M68200 25130
L68200 24830
L68370 25130
L68370 24830
" />
<path d="M68470 24830
L68650 24830
" />
<path d="M68560 25130
L68560 24830
" />
<path d="M68800 24830
L68830 24830
L68860 24850
L68870 24860
L68890 24890
L68900 24950
L68900 25020
L68890 25070
L68870 25100
L68860 25120
L68830 25130
L68800 25130
L68770 25120
L68760 25100
L68750 25070
L68730 25020
L68730 24950
L68750 24890
L68760 24860
L68770 24850
L68800 24830
" />
</g>
<g style="fill:#000000; fill-opacity:0.0; 
stroke:#000000; stroke-width:60; stroke-opacity:1; 
stroke-linecap:round; stroke-linejoin:round;">
<path d="M69580 24530
L69410 24530
L69400 24700
L69410 24680
L69450 24660
L69530 24660
L69560 24680
L69580 24700
L69600 24730
L69600 24810
L69580 24850
L69560 24860
L69530 24880
L69450 24880
L69410 24860
L69400 24850
" />
<path d="M69000 26000
L70000 26000
" />
</g>
<g style="fill:#000000; fill-opacity:0.0; 
stroke:#000000; stroke-width:50; stroke-opacity:1; 
stroke-linecap:round; stroke-linejoin:round;">
<path d="M67160 26130
L67160 25830
L67230 25830
L67270 25850
L67300 25870
L67320 25900
L67330 25960
L67330 26000
L67320 26060
L67300 26090
L67270 26120
L67230 26130
L67160 26130
" />
<path d="M67430 25830
L67620 25830
L67520 25950
L67560 25950
L67590 25960
L67600 25970
L67620 26000
L67620 26070
L67600 26100
L67590 26120
L67560 26130
L67470 26130
L67450 26120
L67430 26100
" />
<path d="M67960 25820
L67700 26200
" />
<path d="M68060 26130
L68060 25830
" />
<path d="M68200 26130
L68200 25830
L68370 26130
L68370 25830
" />
<path d="M68470 25830
L68650 25830
" />
<path d="M68560 26130
L68560 25830
" />
<path d="M68900 26130
L68730 26130
" />
<path d="M68820 26130
L68820 25830
L68790 25870
L68760 25900
L68730 25920
" />
</g>
<g style="fill:#000000; fill-opacity:0.0; 
stroke:#000000; stroke-width:60; stroke-opacity:1; 
stroke-linecap:round; stroke-linejoin:round;">
<path d="M69560 25530
L69500 25530
L69460 25550
L69450 25560
L69410 25610
L69400 25680
L69400 25810
L69410 25850
L69430 25860
L69460 25880
L69530 25880
L69560 25860
L69580 25850
L69600 25810
L69600 25730
L69580 25700
L69560 25680
L69530 25660
L69460 25660
L69430 25680
L69410 25700
L69400 25730
" />
<path d="M69000 27000
L70000 27000
" />
</g>
<g style="fill:#000000; fill-opacity:0.0; 
stroke:#000000; stroke-width:50; stroke-opacity:1; 
stroke-linecap:round; stroke-linejoin:round;">
<path d="M67620 27130
L67620 26830
L67690 26830
L67730 26850
L67760 26870
L67770 26900
L67790 26960
L67790 27000
L67770 27060
L67760 27090
L67730 27120
L67690 27130
L67620 27130
" />
<path d="M68050 26930
L68050 27130
" />
<path d="M67970 26820
L67900 27030
L68090 27030
" />
<path d="M68420 26820
L68160 27200
" />
<path d="M68470 26830
L68650 26830
" />
<path d="M68560 27130
L68560 26830
" />
<path d="M68800 26830
L68830 26830
L68860 26850
L68870 26860
L68890 26890
L68900 26950
L68900 27020
L68890 27070
L68870 27100
L68860 27120
L68830 27130
L68800 27130
L68770 27120
L68760 27100
L68750 27070
L68730 27020
L68730 26950
L68750 26890
L68760 26860
L68770 26850
L68800 26830
" />
</g>
<g style="fill:#000000; fill-opacity:0.0; 
stroke:#000000; stroke-width:60; stroke-opacity:1; 
stroke-linecap:round; stroke-linejoin:round;">
<path d="M69380 26530
L69610 26530
L69460 26880
" />
<path d="M69000 28000
L70000 28000
" />
</g>
<g style="fill:#000000; fill-opacity:0.0; 
stroke:#000000; stroke-width:50; stroke-opacity:1; 
stroke-linecap:round; stroke-linejoin:round;">
<path d="M67620 28130
L67620 27830
L67690 27830
L67730 27850
L67760 27870
L67770 27900
L67790 27960
L67790 28000
L67770 28060
L67760 28090
L67730 28120
L67690 28130
L67620 28130
" />
<path d="M68060 27830
L67920 27830
L67900 27970
L67920 27960
L67950 27950
L68020 27950
L68050 27960
L68060 27970
L68070 28000
L68070 28070
L68060 28100
L68050 28120
L68020 28130
L67950 28130
L67920 28120
L67900 28100
" />
<path d="M68420 27820
L68160 28200
" />
<path d="M68470 27830
L68650 27830
" />
<path d="M68560 28130
L68560 27830
" />
<path d="M68900 28130
L68730 28130
" />
<path d="M68820 28130
L68820 27830
L68790 27870
L68760 27900
L68730 27920
" />
</g>
<g style="fill:#000000; fill-opacity:0.0; 
stroke:#000000; stroke-width:60; stroke-opacity:1; 
stroke-linecap:round; stroke-linejoin:round;">
<path d="M69460 27680
L69430 27660
L69410 27650
L69400 27610
L69400 27600
L69410 27560
L69430 27550
L69460 27530
L69530 27530
L69560 27550
L69580 27560
L69600 27600
L69600 27610
L69580 27650
L69560 27660
L69530 27680
L69460 27680
L69430 27700
L69410 27710
L69400 27750
L69400 27810
L69410 27850
L69430 27860
L69460 27880
L69530 27880
L69560 27860
L69580 27850
L69600 27810
L69600 27750
L69580 27710
L69560 27700
L69530 27680
" />
<path d="M69000 29000
L70000 29000
" />
</g>
<g style="fill:#000000; fill-opacity:0.0; 
stroke:#000000; stroke-width:50; stroke-opacity:1; 
stroke-linecap:round; stroke-linejoin:round;">
<path d="M67130 29130
L67130 28830
L67200 28830
L67250 28850
L67270 28870
L67290 28900
L67300 28960
L67300 29000
L67290 29060
L67270 29090
L67250 29120
L67200 29130
L67130 29130
" />
<path d="M67560 28830
L67500 28830
L67470 28850
L67460 28860
L67430 28900
L67420 28960
L67420 29070
L67430 29100
L67450 29120
L67470 29130
L67530 29130
L67560 29120
L67570 29100
L67590 29070
L67590 29000
L67570 28970
L67560 28960
L67530 28950
L67470 28950
L67450 28960
L67430 28970
L67420 29000
" />
<path d="M67930 28820
L67670 29200
" />
<path d="M68020 29050
L68160 29050
" />
<path d="M67990 29130
L68090 28830
L68190 29130
" />
<path d="M68290 29130
L68290 28830
" />
<path d="M68430 29130
L68430 28830
L68600 29130
L68600 28830
" />
<path d="M68800 28830
L68830 28830
L68860 28850
L68870 28860
L68890 28890
L68900 28950
L68900 29020
L68890 29070
L68870 29100
L68860 29120
L68830 29130
L68800 29130
L68770 29120
L68760 29100
L68750 29070
L68730 29020
L68730 28950
L68750 28890
L68760 28860
L68770 28850
L68800 28830
" />
</g>
<g style="fill:#000000; fill-opacity:0.0; 
stroke:#000000; stroke-width:60; stroke-opacity:1; 
stroke-linecap:round; stroke-linejoin:round;">
<path d="M69430 28880
L69500 28880
L69530 28860
L69550 28850
L69580 28800
L69600 28730
L69600 28600
L69580 28560
L69560 28550
L69530 28530
L69460 28530
L69430 28550
L69410 28560
L69400 28600
L69400 28680
L69410 28710
L69430 28730
L69460 28750
L69530 28750
L69560 28730
L69580 28710
L69600 28680
" />
<path d="M69000 30000
L70000 30000
" />
</g>
<g style="fill:#000000; fill-opacity:0.0; 
stroke:#000000; stroke-width:50; stroke-opacity:1; 
stroke-linecap:round; stroke-linejoin:round;">
<path d="M67130 30130
L67130 29830
L67200 29830
L67250 29850
L67270 29870
L67290 29900
L67300 29960
L67300 30000
L67290 30060
L67270 30090
L67250 30120
L67200 30130
L67130 30130
" />
<path d="M67400 29830
L67600 29830
L67470 30130
" />
<path d="M67930 29820
L67670 30200
" />
<path d="M68020 30050
L68160 30050
" />
<path d="M67990 30130
L68090 29830
L68190 30130
" />
<path d="M68290 30130
L68290 29830
" />
<path d="M68430 30130
L68430 29830
L68600 30130
L68600 29830
" />
<path d="M68900 30130
L68730 30130
" />
<path d="M68820 30130
L68820 29830
L68790 29870
L68760 29900
L68730 29920
" />
</g>
<g style="fill:#000000; fill-opacity:0.0; 
stroke:#000000; stroke-width:60; stroke-opacity:1; 
stroke-linecap:round; stroke-linejoin:round;">
<path d="M69430 29880
L69230 29880
" />
<path d="M69330 29880
L69330 29530
L69300 29580
L69260 29610
L69230 29630
" />
<path d="M69650 29530
L69680 29530
L69710 29550
L69730 29560
L69750 29600
L69760 29660
L69760 29750
L69750 29810
L69730 29850
L69710 29860
L69680 29880
L69650 29880
L69610 29860
L69600 29850
L69580 29810
L69560 29750
L69560 29660
L69580 29600
L69600 29560
L69610 29550
L69650 29530
" />
<path d="M64000 31000
L63000 31000
" />
</g>
<g style="fill:#000000; fill-opacity:0.0; 
stroke:#000000; stroke-width:50; stroke-opacity:1; 
stroke-linecap:round; stroke-linejoin:round;">
<path d="M64090 31050
L64230 31050
" />
<path d="M64060 31130
L64160 30830
L64260 31130
" />
<path d="M64520 31130
L64340 31130
" />
<path d="M64430 31130
L64430 30830
L64400 30870
L64370 30900
L64340 30920
" />
</g>
<g style="fill:#000000; fill-opacity:0.0; 
stroke:#000000; stroke-width:60; stroke-opacity:1; 
stroke-linecap:round; stroke-linejoin:round;">
<path d="M63230 30560
L63250 30550
L63280 30530
L63360 30530
L63400 30550
L63410 30560
L63430 30600
L63430 30630
L63410 30680
L63210 30880
L63430 30880
" />
<path d="M63650 30530
L63680 30530
L63710 30550
L63730 30560
L63750 30600
L63760 30660
L63760 30750
L63750 30810
L63730 30850
L63710 30860
L63680 30880
L63650 30880
L63610 30860
L63600 30850
L63580 30810
L63560 30750
L63560 30660
L63580 30600
L63600 30560
L63610 30550
L63650 30530
" />
<path d="M64000 21000
L63000 21000
" />
<path d="M64070 20780
L64200 21170
L64330 20780
" />
<path d="M64460 21170
L64460 20780
" />
<path d="M64650 21170
L64650 20780
L64870 21170
L64870 20780
" />
<path d="M63210 20530
L63430 20530
L63310 20660
L63360 20660
L63400 20680
L63410 20700
L63430 20730
L63430 20810
L63410 20850
L63400 20860
L63360 20880
L63260 20880
L63230 20860
L63210 20850
" />
<path d="M63650 20530
L63680 20530
L63710 20550
L63730 20560
L63750 20600
L63760 20660
L63760 20750
L63750 20810
L63730 20850
L63710 20860
L63680 20880
L63650 20880
L63610 20860
L63600 20850
L63580 20810
L63560 20750
L63560 20660
L63580 20600
L63600 20560
L63610 20550
L63650 20530
" />
<path d="M69000 31000
L70000 31000
" />
</g>
<g style="fill:#000000; fill-opacity:0.0; 
stroke:#000000; stroke-width:50; stroke-opacity:1; 
stroke-linecap:round; stroke-linejoin:round;">
<path d="M67390 31130
L67390 30830
L67460 30830
L67500 30850
L67530 30870
L67550 30900
L67560 30960
L67560 31000
L67550 31060
L67530 31090
L67500 31120
L67460 31130
L67390 31130
" />
<path d="M67730 30960
L67700 30950
L67690 30930
L67670 30900
L67670 30890
L67690 30860
L67700 30850
L67730 30830
L67790 30830
L67820 30850
L67830 30860
L67850 30890
L67850 30900
L67830 30930
L67820 30950
L67790 30960
L67730 30960
L67700 30970
L67690 30990
L67670 31020
L67670 31070
L67690 31100
L67700 31120
L67730 31130
L67790 31130
L67820 31120
L67830 31100
L67850 31070
L67850 31020
L67830 30990
L67820 30970
L67790 30960
" />
<path d="M68190 30820
L67930 31200
" />
<path d="M68290 31130
L68290 30830
" />
<path d="M68600 31100
L68590 31120
L68550 31130
L68520 31130
L68470 31120
L68450 31090
L68430 31060
L68420 31000
L68420 30960
L68430 30900
L68450 30870
L68470 30850
L68520 30830
L68550 30830
L68590 30850
L68600 30860
" />
<path d="M68730 31130
L68730 30830
L68850 30830
L68870 30850
L68890 30860
L68900 30890
L68900 30930
L68890 30960
L68870 30970
L68850 30990
L68730 30990
" />
</g>
<g style="fill:#000000; fill-opacity:0.0; 
stroke:#000000; stroke-width:60; stroke-opacity:1; 
stroke-linecap:round; stroke-linejoin:round;">
<path d="M69430 30880
L69230 30880
" />
<path d="M69330 30880
L69330 30530
L69300 30580
L69260 30610
L69230 30630
" />
<path d="M69760 30880
L69560 30880
" />
<path d="M69660 30880
L69660 30530
L69630 30580
L69600 30610
L69560 30630
" />
<path d="M64000 30000
L63000 30000
" />
</g>
<g style="fill:#000000; fill-opacity:0.0; 
stroke:#000000; stroke-width:50; stroke-opacity:1; 
stroke-linecap:round; stroke-linejoin:round;">
<path d="M64090 30050
L64230 30050
" />
<path d="M64060 30130
L64160 29830
L64260 30130
" />
<path d="M64340 29860
L64360 29850
L64390 29830
L64460 29830
L64490 29850
L64500 29860
L64520 29890
L64520 29920
L64500 29960
L64330 30130
L64520 30130
" />
</g>
<g style="fill:#000000; fill-opacity:0.0; 
stroke:#000000; stroke-width:60; stroke-opacity:1; 
stroke-linecap:round; stroke-linejoin:round;">
<path d="M63230 29560
L63250 29550
L63280 29530
L63360 29530
L63400 29550
L63410 29560
L63430 29600
L63430 29630
L63410 29680
L63210 29880
L63430 29880
" />
<path d="M63760 29880
L63560 29880
" />
<path d="M63660 29880
L63660 29530
L63630 29580
L63600 29610
L63560 29630
" />
<path d="M69000 32000
L70000 32000
" />
</g>
<g style="fill:#000000; fill-opacity:0.0; 
stroke:#000000; stroke-width:50; stroke-opacity:1; 
stroke-linecap:round; stroke-linejoin:round;">
<path d="M67260 32130
L67260 31830
L67330 31830
L67370 31850
L67400 31870
L67420 31900
L67430 31960
L67430 32000
L67420 32060
L67400 32090
L67370 32120
L67330 32130
L67260 32130
" />
<path d="M67570 32130
L67630 32130
L67660 32120
L67670 32100
L67700 32060
L67720 32000
L67720 31890
L67700 31860
L67690 31850
L67660 31830
L67600 31830
L67570 31850
L67560 31860
L67550 31890
L67550 31960
L67560 31990
L67570 32000
L67600 32020
L67660 32020
L67690 32000
L67700 31990
L67720 31960
" />
<path d="M68060 31820
L67800 32200
" />
<path d="M68220 31830
L68250 31830
L68270 31850
L68290 31860
L68300 31890
L68320 31950
L68320 32020
L68300 32070
L68290 32100
L68270 32120
L68250 32130
L68220 32130
L68190 32120
L68170 32100
L68160 32070
L68150 32020
L68150 31950
L68160 31890
L68170 31860
L68190 31850
L68220 31830
" />
<path d="M68620 32100
L68600 32120
L68560 32130
L68530 32130
L68490 32120
L68460 32090
L68450 32060
L68430 32000
L68430 31960
L68450 31900
L68460 31870
L68490 31850
L68530 31830
L68560 31830
L68600 31850
L68620 31860
" />
<path d="M68900 32130
L68730 32130
" />
<path d="M68820 32130
L68820 31830
L68790 31870
L68760 31900
L68730 31920
" />
</g>
<g style="fill:#000000; fill-opacity:0.0; 
stroke:#000000; stroke-width:60; stroke-opacity:1; 
stroke-linecap:round; stroke-linejoin:round;">
<path d="M69430 31880
L69230 31880
" />
<path d="M69330 31880
L69330 31530
L69300 31580
L69260 31610
L69230 31630
" />
<path d="M69560 31560
L69580 31550
L69610 31530
L69700 31530
L69730 31550
L69750 31560
L69760 31600
L69760 31630
L69750 31680
L69550 31880
L69760 31880
" />
<path d="M64000 29000
L63000 29000
" />
</g>
<g style="fill:#000000; fill-opacity:0.0; 
stroke:#000000; stroke-width:50; stroke-opacity:1; 
stroke-linecap:round; stroke-linejoin:round;">
<path d="M64090 29050
L64230 29050
" />
<path d="M64060 29130
L64160 28830
L64260 29130
" />
<path d="M64330 28830
L64520 28830
L64420 28950
L64460 28950
L64490 28960
L64500 28970
L64520 29000
L64520 29070
L64500 29100
L64490 29120
L64460 29130
L64370 29130
L64340 29120
L64330 29100
" />
</g>
<g style="fill:#000000; fill-opacity:0.0; 
stroke:#000000; stroke-width:60; stroke-opacity:1; 
stroke-linecap:round; stroke-linejoin:round;">
<path d="M63230 28560
L63250 28550
L63280 28530
L63360 28530
L63400 28550
L63410 28560
L63430 28600
L63430 28630
L63410 28680
L63210 28880
L63430 28880
" />
<path d="M63560 28560
L63580 28550
L63610 28530
L63700 28530
L63730 28550
L63750 28560
L63760 28600
L63760 28630
L63750 28680
L63550 28880
L63760 28880
" />
<path d="M69000 33000
L70000 33000
" />
</g>
<g style="fill:#000000; fill-opacity:0.0; 
stroke:#000000; stroke-width:50; stroke-opacity:1; 
stroke-linecap:round; stroke-linejoin:round;">
<path d="M67270 33130
L67270 32830
L67350 32830
L67390 32850
L67420 32870
L67430 32900
L67450 32960
L67450 33000
L67430 33060
L67420 33090
L67390 33120
L67350 33130
L67270 33130
" />
<path d="M67730 33130
L67560 33130
" />
<path d="M67650 33130
L67650 32830
L67620 32870
L67590 32900
L67560 32920
" />
<path d="M67920 32830
L67950 32830
L67970 32850
L67990 32860
L68000 32890
L68020 32950
L68020 33020
L68000 33070
L67990 33100
L67970 33120
L67950 33130
L67920 33130
L67890 33120
L67870 33100
L67860 33070
L67850 33020
L67850 32950
L67860 32890
L67870 32860
L67890 32850
L67920 32830
" />
<path d="M68360 32820
L68100 33200
" />
<path d="M68450 33120
L68490 33130
L68560 33130
L68590 33120
L68600 33100
L68620 33070
L68620 33050
L68600 33020
L68590 33000
L68560 32990
L68500 32970
L68470 32960
L68460 32950
L68450 32920
L68450 32890
L68460 32860
L68470 32850
L68500 32830
L68570 32830
L68620 32850
" />
<path d="M68730 33120
L68770 33130
L68850 33130
L68870 33120
L68890 33100
L68900 33070
L68900 33050
L68890 33020
L68870 33000
L68850 32990
L68790 32970
L68760 32960
L68750 32950
L68730 32920
L68730 32890
L68750 32860
L68760 32850
L68790 32830
L68860 32830
L68900 32850
" />
</g>
<g style="fill:#000000; fill-opacity:0.0; 
stroke:#000000; stroke-width:60; stroke-opacity:1; 
stroke-linecap:round; stroke-linejoin:round;">
<path d="M69430 32880
L69230 32880
" />
<path d="M69330 32880
L69330 32530
L69300 32580
L69260 32610
L69230 32630
" />
<path d="M69550 32530
L69760 32530
L69650 32660
L69700 32660
L69730 32680
L69750 32700
L69760 32730
L69760 32810
L69750 32850
L69730 32860
L69700 32880
L69600 32880
L69560 32860
L69550 32850
" />
<path d="M64000 28000
L63000 28000
" />
</g>
<g style="fill:#000000; fill-opacity:0.0; 
stroke:#000000; stroke-width:50; stroke-opacity:1; 
stroke-linecap:round; stroke-linejoin:round;">
<path d="M64090 28050
L64230 28050
" />
<path d="M64060 28130
L64160 27830
L64260 28130
" />
<path d="M64490 27930
L64490 28130
" />
<path d="M64420 27820
L64340 28030
L64530 28030
" />
</g>
<g style="fill:#000000; fill-opacity:0.0; 
stroke:#000000; stroke-width:60; stroke-opacity:1; 
stroke-linecap:round; stroke-linejoin:round;">
<path d="M63230 27560
L63250 27550
L63280 27530
L63360 27530
L63400 27550
L63410 27560
L63430 27600
L63430 27630
L63410 27680
L63210 27880
L63430 27880
" />
<path d="M63550 27530
L63760 27530
L63650 27660
L63700 27660
L63730 27680
L63750 27700
L63760 27730
L63760 27810
L63750 27850
L63730 27860
L63700 27880
L63600 27880
L63560 27860
L63550 27850
" />
<path d="M69000 34000
L70000 34000
" />
</g>
<g style="fill:#000000; fill-opacity:0.0; 
stroke:#000000; stroke-width:50; stroke-opacity:1; 
stroke-linecap:round; stroke-linejoin:round;">
<path d="M66760 34130
L66760 33830
L66830 33830
L66870 33850
L66900 33870
L66920 33900
L66930 33960
L66930 34000
L66920 34060
L66900 34090
L66870 34120
L66830 34130
L66760 34130
" />
<path d="M67220 34130
L67050 34130
" />
<path d="M67130 34130
L67130 33830
L67100 33870
L67070 33900
L67050 33920
" />
<path d="M67500 34130
L67330 34130
" />
<path d="M67420 34130
L67420 33830
L67390 33870
L67360 33900
L67330 33920
" />
<path d="M67850 33820
L67590 34200
" />
<path d="M67950 34130
L67950 33830
L68050 34050
L68150 33830
L68150 34130
" />
<path d="M68350 33830
L68400 33830
L68430 33850
L68460 33870
L68470 33930
L68470 34030
L68460 34090
L68430 34120
L68400 34130
L68350 34130
L68320 34120
L68290 34090
L68270 34030
L68270 33930
L68290 33870
L68320 33850
L68350 33830
" />
<path d="M68590 34120
L68630 34130
L68700 34130
L68730 34120
L68750 34100
L68760 34070
L68760 34050
L68750 34020
L68730 34000
L68700 33990
L68650 33970
L68620 33960
L68600 33950
L68590 33920
L68590 33890
L68600 33860
L68620 33850
L68650 33830
L68720 33830
L68760 33850
" />
<path d="M68890 34130
L68890 33830
" />
</g>
<g style="fill:#000000; fill-opacity:0.0; 
stroke:#000000; stroke-width:60; stroke-opacity:1; 
stroke-linecap:round; stroke-linejoin:round;">
<path d="M69430 33880
L69230 33880
" />
<path d="M69330 33880
L69330 33530
L69300 33580
L69260 33610
L69230 33630
" />
<path d="M69730 33650
L69730 33880
" />
<path d="M69650 33510
L69560 33760
L69780 33760
" />
<path d="M64000 27000
L63000 27000
" />
</g>
<g style="fill:#000000; fill-opacity:0.0; 
stroke:#000000; stroke-width:50; stroke-opacity:1; 
stroke-linecap:round; stroke-linejoin:round;">
<path d="M64090 27050
L64230 27050
" />
<path d="M64060 27130
L64160 26830
L64260 27130
" />
<path d="M64500 26830
L64360 26830
L64340 26970
L64360 26960
L64390 26950
L64460 26950
L64490 26960
L64500 26970
L64520 27000
L64520 27070
L64500 27100
L64490 27120
L64460 27130
L64390 27130
L64360 27120
L64340 27100
" />
</g>
<g style="fill:#000000; fill-opacity:0.0; 
stroke:#000000; stroke-width:60; stroke-opacity:1; 
stroke-linecap:round; stroke-linejoin:round;">
<path d="M63230 26560
L63250 26550
L63280 26530
L63360 26530
L63400 26550
L63410 26560
L63430 26600
L63430 26630
L63410 26680
L63210 26880
L63430 26880
" />
<path d="M63730 26650
L63730 26880
" />
<path d="M63650 26510
L63560 26760
L63780 26760
" />
<path d="M69000 35000
L70000 35000
" />
</g>
<g style="fill:#000000; fill-opacity:0.0; 
stroke:#000000; stroke-width:50; stroke-opacity:1; 
stroke-linecap:round; stroke-linejoin:round;">
<path d="M66760 35130
L66760 34830
L66830 34830
L66870 34850
L66900 34870
L66920 34900
L66930 34960
L66930 35000
L66920 35060
L66900 35090
L66870 35120
L66830 35130
L66760 35130
" />
<path d="M67220 35130
L67050 35130
" />
<path d="M67130 35130
L67130 34830
L67100 34870
L67070 34900
L67050 34920
" />
<path d="M67330 34860
L67350 34850
L67370 34830
L67450 34830
L67470 34850
L67490 34860
L67500 34890
L67500 34920
L67490 34960
L67320 35130
L67500 35130
" />
<path d="M67850 34820
L67590 35200
" />
<path d="M67950 35130
L67950 34830
L68050 35050
L68150 34830
L68150 35130
" />
<path d="M68290 35130
L68290 34830
" />
<path d="M68420 35120
L68460 35130
L68530 35130
L68560 35120
L68570 35100
L68590 35070
L68590 35050
L68570 35020
L68560 35000
L68530 34990
L68470 34970
L68450 34960
L68430 34950
L68420 34920
L68420 34890
L68430 34860
L68450 34850
L68470 34830
L68550 34830
L68590 34850
" />
<path d="M68770 34830
L68830 34830
L68860 34850
L68890 34870
L68900 34930
L68900 35030
L68890 35090
L68860 35120
L68830 35130
L68770 35130
L68750 35120
L68720 35090
L68700 35030
L68700 34930
L68720 34870
L68750 34850
L68770 34830
" />
</g>
<g style="fill:#000000; fill-opacity:0.0; 
stroke:#000000; stroke-width:60; stroke-opacity:1; 
stroke-linecap:round; stroke-linejoin:round;">
<path d="M69430 34880
L69230 34880
" />
<path d="M69330 34880
L69330 34530
L69300 34580
L69260 34610
L69230 34630
" />
<path d="M69750 34530
L69580 34530
L69560 34700
L69580 34680
L69610 34660
L69700 34660
L69730 34680
L69750 34700
L69760 34730
L69760 34810
L69750 34850
L69730 34860
L69700 34880
L69610 34880
L69580 34860
L69560 34850
" />
<path d="M64000 26000
L63000 26000
" />
</g>
<g style="fill:#000000; fill-opacity:0.0; 
stroke:#000000; stroke-width:50; stroke-opacity:1; 
stroke-linecap:round; stroke-linejoin:round;">
<path d="M64090 26050
L64230 26050
" />
<path d="M64060 26130
L64160 25830
L64260 26130
" />
<path d="M64490 25830
L64430 25830
L64400 25850
L64390 25860
L64360 25900
L64340 25960
L64340 26070
L64360 26100
L64370 26120
L64400 26130
L64460 26130
L64490 26120
L64500 26100
L64520 26070
L64520 26000
L64500 25970
L64490 25960
L64460 25950
L64400 25950
L64370 25960
L64360 25970
L64340 26000
" />
</g>
<g style="fill:#000000; fill-opacity:0.0; 
stroke:#000000; stroke-width:60; stroke-opacity:1; 
stroke-linecap:round; stroke-linejoin:round;">
<path d="M63230 25560
L63250 25550
L63280 25530
L63360 25530
L63400 25550
L63410 25560
L63430 25600
L63430 25630
L63410 25680
L63210 25880
L63430 25880
" />
<path d="M63750 25530
L63580 25530
L63560 25700
L63580 25680
L63610 25660
L63700 25660
L63730 25680
L63750 25700
L63760 25730
L63760 25810
L63750 25850
L63730 25860
L63700 25880
L63610 25880
L63580 25860
L63560 25850
" />
<path d="M64000 35000
L63000 35000
" />
</g>
<g style="fill:#000000; fill-opacity:0.0; 
stroke:#000000; stroke-width:50; stroke-opacity:1; 
stroke-linecap:round; stroke-linejoin:round;">
<path d="M64090 35120
L64130 35130
L64200 35130
L64230 35120
L64240 35100
L64260 35070
L64260 35050
L64240 35020
L64230 35000
L64200 34990
L64140 34970
L64120 34960
L64100 34950
L64090 34920
L64090 34890
L64100 34860
L64120 34850
L64140 34830
L64220 34830
L64260 34850
" />
<path d="M64560 35100
L64540 35120
L64500 35130
L64470 35130
L64430 35120
L64400 35090
L64390 35060
L64370 35000
L64370 34960
L64390 34900
L64400 34870
L64430 34850
L64470 34830
L64500 34830
L64540 34850
L64560 34860
" />
<path d="M64690 35130
L64690 34830
" />
<path d="M64860 35130
L64730 34960
" />
<path d="M64860 34830
L64690 35000
" />
<path d="M65200 34820
L64940 35200
" />
<path d="M65300 35130
L65300 34830
L65370 34830
L65420 34850
L65440 34870
L65460 34900
L65470 34960
L65470 35000
L65460 35060
L65440 35090
L65420 35120
L65370 35130
L65300 35130
" />
<path d="M65760 35130
L65590 35130
" />
<path d="M65670 35130
L65670 34830
L65640 34870
L65620 34900
L65590 34920
" />
<path d="M65860 34830
L66040 34830
L65940 34950
L65990 34950
L66020 34960
L66030 34970
L66040 35000
L66040 35070
L66030 35100
L66020 35120
L65990 35130
L65900 35130
L65870 35120
L65860 35100
" />
</g>
<g style="fill:#000000; fill-opacity:0.0; 
stroke:#000000; stroke-width:60; stroke-opacity:1; 
stroke-linecap:round; stroke-linejoin:round;">
<path d="M63430 34880
L63230 34880
" />
<path d="M63330 34880
L63330 34530
L63300 34580
L63260 34610
L63230 34630
" />
<path d="M63730 34530
L63660 34530
L63630 34550
L63610 34560
L63580 34610
L63560 34680
L63560 34810
L63580 34850
L63600 34860
L63630 34880
L63700 34880
L63730 34860
L63750 34850
L63760 34810
L63760 34730
L63750 34700
L63730 34680
L63700 34660
L63630 34660
L63600 34680
L63580 34700
L63560 34730
" />
<path d="M64000 25000
L63000 25000
" />
</g>
<g style="fill:#000000; fill-opacity:0.0; 
stroke:#000000; stroke-width:50; stroke-opacity:1; 
stroke-linecap:round; stroke-linejoin:round;">
<path d="M64090 25050
L64230 25050
" />
<path d="M64060 25130
L64160 24830
L64260 25130
" />
<path d="M64330 24830
L64530 24830
L64400 25130
" />
</g>
<g style="fill:#000000; fill-opacity:0.0; 
stroke:#000000; stroke-width:60; stroke-opacity:1; 
stroke-linecap:round; stroke-linejoin:round;">
<path d="M63230 24560
L63250 24550
L63280 24530
L63360 24530
L63400 24550
L63410 24560
L63430 24600
L63430 24630
L63410 24680
L63210 24880
L63430 24880
" />
<path d="M63730 24530
L63660 24530
L63630 24550
L63610 24560
L63580 24610
L63560 24680
L63560 24810
L63580 24850
L63600 24860
L63630 24880
L63700 24880
L63730 24860
L63750 24850
L63760 24810
L63760 24730
L63750 24700
L63730 24680
L63700 24660
L63630 24660
L63600 24680
L63580 24700
L63560 24730
" />
<path d="M64000 34000
L63000 34000
" />
<path d="M64090 33780
L64330 33780
L64200 33930
L64260 33930
L64300 33950
L64310 33970
L64330 34000
L64330 34100
L64310 34130
L64300 34150
L64260 34170
L64150 34170
L64110 34150
L64090 34130
" />
<path d="M64440 33780
L64570 34170
L64700 33780
" />
<path d="M64800 33780
L65040 33780
L64910 33930
L64960 33930
L65000 33950
L65020 33970
L65040 34000
L65040 34100
L65020 34130
L65000 34150
L64960 34170
L64850 34170
L64820 34150
L64800 34130
" />
<path d="M63430 33880
L63230 33880
" />
<path d="M63330 33880
L63330 33530
L63300 33580
L63260 33610
L63230 33630
" />
<path d="M63550 33530
L63780 33530
L63630 33880
" />
<path d="M64000 24000
L63000 24000
" />
<path d="M64310 23780
L64130 23780
L64110 23970
L64130 23950
L64170 23930
L64260 23930
L64300 23950
L64310 23970
L64330 24000
L64330 24100
L64310 24130
L64300 24150
L64260 24170
L64170 24170
L64130 24150
L64110 24130
" />
<path d="M64440 23780
L64570 24170
L64700 23780
" />
<path d="M63230 23560
L63250 23550
L63280 23530
L63360 23530
L63400 23550
L63410 23560
L63430 23600
L63430 23630
L63410 23680
L63210 23880
L63430 23880
" />
<path d="M63550 23530
L63780 23530
L63630 23880
" />
<path d="M64000 33000
L63000 33000
" />
</g>
<g style="fill:#000000; fill-opacity:0.0; 
stroke:#000000; stroke-width:50; stroke-opacity:1; 
stroke-linecap:round; stroke-linejoin:round;">
<path d="M64090 33050
L64230 33050
" />
<path d="M64060 33130
L64160 32830
L64260 33130
" />
<path d="M64530 33130
L64430 32990
" />
<path d="M64360 33130
L64360 32830
L64470 32830
L64500 32850
L64520 32860
L64530 32890
L64530 32930
L64520 32960
L64500 32970
L64470 32990
L64360 32990
" />
<path d="M64660 32970
L64760 32970
" />
<path d="M64800 33130
L64660 33130
L64660 32830
L64800 32830
" />
<path d="M65030 32970
L64930 32970
" />
<path d="M64930 33130
L64930 32830
L65070 32830
" />
</g>
<g style="fill:#000000; fill-opacity:0.0; 
stroke:#000000; stroke-width:60; stroke-opacity:1; 
stroke-linecap:round; stroke-linejoin:round;">
<path d="M63430 32880
L63230 32880
" />
<path d="M63330 32880
L63330 32530
L63300 32580
L63260 32610
L63230 32630
" />
<path d="M63630 32680
L63600 32660
L63580 32650
L63560 32610
L63560 32600
L63580 32560
L63600 32550
L63630 32530
L63700 32530
L63730 32550
L63750 32560
L63760 32600
L63760 32610
L63750 32650
L63730 32660
L63700 32680
L63630 32680
L63600 32700
L63580 32710
L63560 32750
L63560 32810
L63580 32850
L63600 32860
L63630 32880
L63700 32880
L63730 32860
L63750 32850
L63760 32810
L63760 32750
L63750 32710
L63730 32700
L63700 32680
" />
<path d="M64000 23000
L63000 23000
" />
</g>
<g style="fill:#000000; fill-opacity:0.0; 
stroke:#000000; stroke-width:50; stroke-opacity:1; 
stroke-linecap:round; stroke-linejoin:round;">
<path d="M64270 23130
L64170 22990
" />
<path d="M64100 23130
L64100 22830
L64220 22830
L64240 22850
L64260 22860
L64270 22890
L64270 22930
L64260 22960
L64240 22970
L64220 22990
L64100 22990
" />
<path d="M64400 22970
L64500 22970
" />
<path d="M64540 23130
L64400 23130
L64400 22830
L64540 22830
" />
<path d="M64660 23120
L64700 23130
L64770 23130
L64800 23120
L64820 23100
L64830 23070
L64830 23050
L64820 23020
L64800 23000
L64770 22990
L64720 22970
L64690 22960
L64670 22950
L64660 22920
L64660 22890
L64670 22860
L64690 22850
L64720 22830
L64790 22830
L64830 22850
" />
<path d="M64960 22970
L65060 22970
" />
<path d="M65100 23130
L64960 23130
L64960 22830
L65100 22830
" />
<path d="M65190 22830
L65360 22830
" />
<path d="M65270 23130
L65270 22830
" />
</g>
<g style="fill:#000000; fill-opacity:0.0; 
stroke:#000000; stroke-width:60; stroke-opacity:1; 
stroke-linecap:round; stroke-linejoin:round;">
<path d="M63230 22560
L63250 22550
L63280 22530
L63360 22530
L63400 22550
L63410 22560
L63430 22600
L63430 22630
L63410 22680
L63210 22880
L63430 22880
" />
<path d="M63630 22680
L63600 22660
L63580 22650
L63560 22610
L63560 22600
L63580 22560
L63600 22550
L63630 22530
L63700 22530
L63730 22550
L63750 22560
L63760 22600
L63760 22610
L63750 22650
L63730 22660
L63700 22680
L63630 22680
L63600 22700
L63580 22710
L63560 22750
L63560 22810
L63580 22850
L63600 22860
L63630 22880
L63700 22880
L63730 22860
L63750 22850
L63760 22810
L63760 22750
L63750 22710
L63730 22700
L63700 22680
" />
<path d="M64000 32000
L63000 32000
" />
</g>
<g style="fill:#000000; fill-opacity:0.0; 
stroke:#000000; stroke-width:50; stroke-opacity:1; 
stroke-linecap:round; stroke-linejoin:round;">
<path d="M64090 32050
L64230 32050
" />
<path d="M64060 32130
L64160 31830
L64260 32130
" />
<path d="M64420 31830
L64440 31830
L64470 31850
L64490 31860
L64500 31890
L64520 31950
L64520 32020
L64500 32070
L64490 32100
L64470 32120
L64440 32130
L64420 32130
L64390 32120
L64370 32100
L64360 32070
L64340 32020
L64340 31950
L64360 31890
L64370 31860
L64390 31850
L64420 31830
" />
</g>
<g style="fill:#000000; fill-opacity:0.0; 
stroke:#000000; stroke-width:60; stroke-opacity:1; 
stroke-linecap:round; stroke-linejoin:round;">
<path d="M63430 31880
L63230 31880
" />
<path d="M63330 31880
L63330 31530
L63300 31580
L63260 31610
L63230 31630
" />
<path d="M63600 31880
L63660 31880
L63700 31860
L63710 31850
L63750 31800
L63760 31730
L63760 31600
L63750 31560
L63730 31550
L63700 31530
L63630 31530
L63600 31550
L63580 31560
L63560 31600
L63560 31680
L63580 31710
L63600 31730
L63630 31750
L63700 31750
L63730 31730
L63750 31710
L63760 31680
" />
<path d="M64000 22000
L63000 22000
" />
<path d="M64330 21800
L64300 21780
L64240 21780
L64180 21800
L64150 21840
L64130 21870
L64110 21950
L64110 22000
L64130 22080
L64150 22120
L64180 22150
L64240 22170
L64280 22170
L64330 22150
L64350 22130
L64350 22000
L64280 22000
" />
<path d="M64520 22170
L64520 21780
L64740 22170
L64740 21780
" />
<path d="M64930 22170
L64930 21780
L65020 21780
L65080 21800
L65110 21840
L65130 21870
L65150 21950
L65150 22000
L65130 22080
L65110 22120
L65080 22150
L65020 22170
L64930 22170
" />
<path d="M63230 21560
L63250 21550
L63280 21530
L63360 21530
L63400 21550
L63410 21560
L63430 21600
L63430 21630
L63410 21680
L63210 21880
L63430 21880
" />
<path d="M63600 21880
L63660 21880
L63700 21860
L63710 21850
L63750 21800
L63760 21730
L63760 21600
L63750 21560
L63730 21550
L63700 21530
L63630 21530
L63600 21550
L63580 21560
L63560 21600
L63560 21680
L63580 21710
L63600 21730
L63630 21750
L63700 21750
L63730 21730
L63750 21710
L63760 21680
" />
<path d="M66290 18330
L66290 18760
L66260 18840
L66200 18900
L66110 18930
L66060 18930
" />
<path d="M66890 18930
L66540 18930
" />
<path d="M66710 18930
L66710 18330
L66660 18410
L66600 18470
L66540 18500
" />
<path d="M61790 19820
L62070 19820
" />
<path d="M61730 19990
L61930 19390
L62130 19990
" />
<path d="M62330 19990
L62330 19590
" />
<path d="M62330 19700
L62360 19640
L62390 19620
L62440 19590
L62500 19590
" />
<path d="M62960 19990
L62960 19390
" />
<path d="M62960 19960
L62900 19990
L62790 19990
L62730 19960
L62700 19930
L62670 19870
L62670 19700
L62700 19640
L62730 19620
L62790 19590
L62900 19590
L62960 19620
" />
<path d="M63500 19590
L63500 19990
" />
<path d="M63240 19590
L63240 19900
L63270 19960
L63330 19990
L63410 19990
L63470 19960
L63500 19930
" />
<path d="M63790 19990
L63790 19590
" />
<path d="M63790 19390
L63760 19420
L63790 19440
L63810 19420
L63790 19390
L63790 19440
" />
<path d="M64070 19590
L64070 19990
" />
<path d="M64070 19640
L64100 19620
L64160 19590
L64240 19590
L64300 19620
L64330 19670
L64330 19990
" />
<path d="M64700 19990
L64640 19960
L64610 19930
L64590 19870
L64590 19700
L64610 19640
L64640 19620
L64700 19590
L64790 19590
L64840 19620
L64870 19640
L64900 19700
L64900 19870
L64870 19930
L64840 19960
L64790 19990
L64700 19990
" />
<path d="M65010 20040
L65470 20040
" />
<path d="M65610 19990
L65610 19390
L65960 19990
L65960 19390
" />
<path d="M66500 19990
L66500 19670
L66470 19620
L66410 19590
L66300 19590
L66240 19620
" />
<path d="M66500 19960
L66440 19990
L66300 19990
L66240 19960
L66210 19900
L66210 19840
L66240 19790
L66300 19760
L66440 19760
L66500 19730
" />
<path d="M66790 19590
L66790 19990
" />
<path d="M66790 19640
L66810 19620
L66870 19590
L66960 19590
L67010 19620
L67040 19670
L67040 19990
" />
<path d="M67410 19990
L67360 19960
L67330 19930
L67300 19870
L67300 19700
L67330 19640
L67360 19620
L67410 19590
L67500 19590
L67560 19620
L67590 19640
L67610 19700
L67610 19870
L67590 19930
L67560 19960
L67500 19990
L67410 19990
" />
<path d="M67730 20040
L68190 20040
" />
<path d="M68330 19990
L68330 19390
" />
<path d="M68330 19670
L68670 19670
" />
<path d="M68670 19990
L68670 19390
" />
<path d="M69190 19960
L69130 19990
L69010 19990
L68960 19960
L68930 19900
L68930 19670
L68960 19620
L69010 19590
L69130 19590
L69190 19620
L69210 19670
L69210 19730
L68930 19790
" />
<path d="M69730 19990
L69730 19670
L69700 19620
L69640 19590
L69530 19590
L69470 19620
" />
<path d="M69730 19960
L69670 19990
L69530 19990
L69470 19960
L69440 19900
L69440 19840
L69470 19790
L69530 19760
L69670 19760
L69730 19730
" />
<path d="M70270 19990
L70270 19390
" />
<path d="M70270 19960
L70210 19990
L70100 19990
L70040 19960
L70010 19930
L69990 19870
L69990 19700
L70010 19640
L70040 19620
L70100 19590
L70210 19590
L70270 19620
" />
<path d="M70790 19960
L70730 19990
L70610 19990
L70560 19960
L70530 19900
L70530 19670
L70560 19620
L70610 19590
L70730 19590
L70790 19620
L70810 19670
L70810 19730
L70530 19790
" />
<path d="M71070 19990
L71070 19590
" />
<path d="M71070 19700
L71100 19640
L71130 19620
L71190 19590
L71240 19590
" />
<path d="M51000 28000
L63000 28000
" />
<path d="M51000 27000
L63000 27000
" />
<path d="M63000 23000
L61500 23000
" />
<path d="M61500 23000
L61500 16000
" />
<path d="M61500 16000
L51000 16000
" />
</g>
<g style="fill:#000000; fill-opacity:0.0; 
stroke:#000000; stroke-width:0; stroke-opacity:1; 
stroke-linecap:round; stroke-linejoin:round;">
</g>
<g style="fill:#000000; fill-opacity:0.0; 
stroke:#000000; stroke-width:100; stroke-opacity:1; 
stroke-linecap:round; stroke-linejoin:round;">
<rect x="52600" y="24000" width="800" height="2000" rx="0" />
</g>
<g style="fill:#000000; fill-opacity:0.0; 
stroke:#000000; stroke-width:60; stroke-opacity:1; 
stroke-linecap:round; stroke-linejoin:round;">
<path d="M53000 24000
L53000 23500
" />
<path d="M53000 26000
L53000 26500
" />
<path d="M54130 24780
L53970 24540
" />
<path d="M53850 24780
L53850 24280
L54040 24280
L54080 24310
L54110 24330
L54130 24380
L54130 24450
L54110 24500
L54080 24520
L54040 24540
L53850 24540
" />
<path d="M54610 24780
L54320 24780
" />
<path d="M54470 24780
L54470 24280
L54420 24350
L54370 24400
L54320 24420
" />
<path d="M54130 25690
L53960 25450
" />
<path d="M53840 25690
L53840 25190
L54030 25190
L54080 25220
L54110 25240
L54130 25290
L54130 25360
L54110 25410
L54080 25430
L54030 25450
L53840 25450
" />
</g>
<g style="fill:#000000; fill-opacity:0.0; 
stroke:#000000; stroke-width:0; stroke-opacity:1; 
stroke-linecap:round; stroke-linejoin:round;">
</g>
<g style="fill:#000000; fill-opacity:0.0; 
stroke:#000000; stroke-width:100; stroke-opacity:1; 
stroke-linecap:round; stroke-linejoin:round;">
<rect x="55600" y="24000" width="800" height="2000" rx="0" />
</g>
<g style="fill:#000000; fill-opacity:0.0; 
stroke:#000000; stroke-width:60; stroke-opacity:1; 
stroke-linecap:round; stroke-linejoin:round;">
<path d="M56000 24000
L56000 23500
" />
<path d="M56000 26000
L56000 26500
" />
<path d="M57130 24780
L56970 24540
" />
<path d="M56850 24780
L56850 24280
L57040 24280
L57080 24310
L57110 24330
L57130 24380
L57130 24450
L57110 24500
L57080 24520
L57040 24540
L56850 24540
" />
<path d="M57320 24330
L57350 24310
L57390 24280
L57510 24280
L57560 24310
L57580 24330
L57610 24380
L57610 24420
L57580 24500
L57300 24780
L57610 24780
" />
<path d="M57130 25690
L56960 25450
" />
<path d="M56840 25690
L56840 25190
L57030 25190
L57080 25220
L57110 25240
L57130 25290
L57130 25360
L57110 25410
L57080 25430
L57030 25450
L56840 25450
" />
<path d="M56000 26500
L56000 27000
" />
</g>
<g style="fill:#000000; fill-opacity:0.0; 
stroke:#000000; stroke-width:0; stroke-opacity:1; 
stroke-linecap:round; stroke-linejoin:round;">
</g>
<g style="fill:#000000; fill-opacity:1.0; 
stroke:#000000; stroke-width:100; stroke-opacity:1; 
stroke-linecap:round; stroke-linejoin:round;">
<circle cx="56000" cy="27000" r="200" /> 
</g>
<g style="fill:#000000; fill-opacity:1.0; 
stroke:#000000; stroke-width:60; stroke-opacity:1; 
stroke-linecap:round; stroke-linejoin:round;">
</g>
<g style="fill:#000000; fill-opacity:0.0; 
stroke:#000000; stroke-width:60; stroke-opacity:1; 
stroke-linecap:round; stroke-linejoin:round;">
<path d="M53000 26500
L53000 28000
" />
</g>
<g style="fill:#000000; fill-opacity:0.0; 
stroke:#000000; stroke-width:0; stroke-opacity:1; 
stroke-linecap:round; stroke-linejoin:round;">
</g>
<g style="fill:#000000; fill-opacity:1.0; 
stroke:#000000; stroke-width:100; stroke-opacity:1; 
stroke-linecap:round; stroke-linejoin:round;">
<circle cx="53000" cy="28000" r="200" /> 
</g>
<g style="fill:#000000; fill-opacity:1.0; 
stroke:#000000; stroke-width:60; stroke-opacity:1; 
stroke-linecap:round; stroke-linejoin:round;">
</g>
<g style="fill:#000000; fill-opacity:0.0; 
stroke:#000000; stroke-width:60; stroke-opacity:1; 
stroke-linecap:round; stroke-linejoin:round;">
<path d="M56000 23000
L56000 23500
" />
<path d="M53000 23000
L60500 23000
" />
<path d="M53000 23000
L53000 23500
" />
</g>
<g style="fill:#000000; fill-opacity:0.0; 
stroke:#000000; stroke-width:0; stroke-opacity:1; 
stroke-linecap:round; stroke-linejoin:round;">
</g>
<g style="fill:#000000; fill-opacity:1.0; 
stroke:#000000; stroke-width:100; stroke-opacity:1; 
stroke-linecap:round; stroke-linejoin:round;">
<circle cx="56000" cy="23000" r="200" /> 
</g>
<g style="fill:#000000; fill-opacity:1.0; 
stroke:#000000; stroke-width:60; stroke-opacity:1; 
stroke-linecap:round; stroke-linejoin:round;">
</g>
<g style="fill:#000000; fill-opacity:0.0; 
stroke:#000000; stroke-width:60; stroke-opacity:1; 
stroke-linecap:round; stroke-linejoin:round;">
<path d="M60500 24000
L63000 24000
" />
<path d="M52530 21270
L52530 20670
" />
<path d="M52810 21270
L52810 20670
L53160 21270
L53160 20670
" />
<path d="M53360 20670
L53700 20670
" />
<path d="M53530 21270
L53530 20670
" />
</g>
<g style="fill:#000000; fill-opacity:0.0; 
stroke:#000000; stroke-width:100; stroke-opacity:1; 
stroke-linecap:round; stroke-linejoin:round;">
<polyline fill="none;"
points="52000,21000
52300,21510
53900,21510
53900,21000
53900,20490
52300,20490
52000,21000
" /> 
</g>
<g style="fill:#000000; fill-opacity:0.0; 
stroke:#000000; stroke-width:60; stroke-opacity:1; 
stroke-linecap:round; stroke-linejoin:round;">
<path d="M71530 26270
L71530 25670
" />
<path d="M71810 26270
L71810 25670
L72160 26270
L72160 25670
" />
<path d="M72360 25670
L72700 25670
" />
<path d="M72530 26270
L72530 25670
" />
</g>
<g style="fill:#000000; fill-opacity:0.0; 
stroke:#000000; stroke-width:100; stroke-opacity:1; 
stroke-linecap:round; stroke-linejoin:round;">
<polyline fill="none;"
points="71000,26000
71300,26510
72900,26510
72900,26000
72900,25490
71300,25490
71000,26000
" /> 
</g>
<g style="fill:#000000; fill-opacity:0.0; 
stroke:#000000; stroke-width:60; stroke-opacity:1; 
stroke-linecap:round; stroke-linejoin:round;">
<path d="M71000 26000
L70000 26000
" />
<path d="M52000 21000
L51000 21000
" />
<path d="M60500 23000
L60500 24000
" />
</g>
<g style="fill:#000000; fill-opacity:0.0; 
stroke:#000000; stroke-width:0; stroke-opacity:1; 
stroke-linecap:round; stroke-linejoin:round;">
</g>
<g style="fill:#000000; fill-opacity:0.0; 
stroke:#000000; stroke-width:60; stroke-opacity:1; 
stroke-linecap:round; stroke-linejoin:round;">
<polyline fill="none;"
points="53000,34500
53000,35000
53500,35000
53000,35500
52500,35000
53000,35000
" /> 
<path d="M52660 36000
L52620 35970
L52550 35970
L52470 36000
L52430 36040
L52400 36090
L52380 36190
L52380 36260
L52400 36350
L52430 36400
L52470 36450
L52550 36470
L52590 36470
L52660 36450
L52690 36420
L52690 36260
L52590 36260
" />
<path d="M52900 36470
L52900 35970
L53190 36470
L53190 35970
" />
<path d="M53430 36470
L53430 35970
L53550 35970
L53620 36000
L53660 36040
L53690 36090
L53710 36190
L53710 36260
L53690 36350
L53660 36400
L53620 36450
L53550 36470
L53430 36470
" />
<path d="M53000 34500
L53000 30000
" />
<path d="M53000 30000
L51000 30000
" />
<path d="M51000 31000
L53000 31000
" />
</g>
<g style="fill:#000000; fill-opacity:0.0; 
stroke:#000000; stroke-width:0; stroke-opacity:1; 
stroke-linecap:round; stroke-linejoin:round;">
</g>
<g style="fill:#000000; fill-opacity:1.0; 
stroke:#000000; stroke-width:100; stroke-opacity:1; 
stroke-linecap:round; stroke-linejoin:round;">
<circle cx="53000" cy="31000" r="200" /> 
</g>
<g style="fill:#000000; fill-opacity:1.0; 
stroke:#000000; stroke-width:60; stroke-opacity:1; 
stroke-linecap:round; stroke-linejoin:round;">
</g>
<g style="fill:#000000; fill-opacity:0.0; 
stroke:#000000; stroke-width:60; stroke-opacity:1; 
stroke-linecap:round; stroke-linejoin:round;">
<path d="M51000 32000
L53000 32000
" />
</g>
<g style="fill:#000000; fill-opacity:0.0; 
stroke:#000000; stroke-width:0; stroke-opacity:1; 
stroke-linecap:round; stroke-linejoin:round;">
</g>
<g style="fill:#000000; fill-opacity:1.0; 
stroke:#000000; stroke-width:100; stroke-opacity:1; 
stroke-linecap:round; stroke-linejoin:round;">
<circle cx="53000" cy="32000" r="200" /> 
</g> 
</svg>
